<svg xmlns="http://www.w3.org/2000/svg" xmlns:xlink="http://www.w3.org/1999/xlink" width="200" zoomAndPan="magnify" viewBox="0 0 150 37.5" height="50" preserveAspectRatio="xMidYMid meet" version="1.0"><defs><g/><clipPath id="e0acfb4d59"><path d="M 4.421875 3.988281 L 33.289062 3.988281 L 33.289062 32.851562 L 4.421875 32.851562 Z M 4.421875 3.988281 " clip-rule="nonzero"/></clipPath><clipPath id="8105fecce0"><path d="M 9.703125 16.28125 L 11.183594 16.28125 L 11.183594 18.5 L 9.703125 18.5 Z M 9.703125 16.28125 " clip-rule="nonzero"/></clipPath><clipPath id="d9d87d6138"><path d="M 26.871094 16.441406 L 28.765625 16.441406 L 28.765625 18.417969 L 26.871094 18.417969 Z M 26.871094 16.441406 " clip-rule="nonzero"/></clipPath></defs><g fill="#ffffff" fill-opacity="1"><g transform="translate(35.350011, 22.944079)"><g><path d="M 2.148438 0 L 2.148438 -9.132812 L 0.847656 -9.132812 L 0.847656 0 Z M 2.148438 0 "/></g></g></g><g fill="#ffffff" fill-opacity="1"><g transform="translate(38.34234, 22.944079)"><g><path d="M 5.765625 0.195312 C 6.648438 0.195312 7.597656 0.0390625 8.601562 -0.261719 L 8.507812 -1.210938 C 7.769531 -0.808594 6.949219 -0.0117188 6.234375 -0.0117188 C 3.785156 -0.0117188 1.953125 -2.015625 1.953125 -4.632812 C 1.953125 -7.46875 3.550781 -9.199219 6.0625 -9.199219 C 6.832031 -9.199219 7.625 -8.46875 8.535156 -7.949219 L 8.601562 -8.875 C 7.613281 -9.226562 6.636719 -9.40625 5.726562 -9.40625 C 2.886719 -9.40625 0.652344 -7.753906 0.652344 -4.632812 C 0.652344 -1.535156 2.769531 0.195312 5.765625 0.195312 Z M 5.765625 0.195312 "/></g></g></g><g fill="#ffffff" fill-opacity="1"><g transform="translate(47.423407, 22.944079)"><g><path d="M 4.90625 0.222656 C 7.742188 0.222656 9.160156 -1.964844 9.160156 -4.542969 C 9.160156 -7.285156 7.742188 -9.355469 4.90625 -9.355469 C 2.070312 -9.355469 0.652344 -7.285156 0.652344 -4.542969 C 0.652344 -1.964844 2.070312 0.222656 4.90625 0.222656 Z M 4.90625 0.0390625 C 2.757812 0.0390625 1.953125 -2.265625 1.953125 -4.542969 C 1.953125 -6.804688 2.65625 -9.171875 4.90625 -9.171875 C 7.105469 -9.171875 7.859375 -6.804688 7.859375 -4.542969 C 7.859375 -2.265625 7.105469 0.0390625 4.90625 0.0390625 Z M 4.90625 0.0390625 "/></g></g></g><g fill="#ffffff" fill-opacity="1"><g transform="translate(57.233042, 22.944079)"><g><path d="M 1.484375 0 C 1.210938 -1.039062 1.171875 -2.03125 1.171875 -3.082031 L 1.171875 -8.390625 L 6.910156 0 L 8.066406 0 L 8.066406 -6.246094 C 8.066406 -7.15625 8.144531 -8.222656 8.378906 -9.132812 L 7.585938 -9.132812 C 7.820312 -8.222656 7.898438 -7.167969 7.898438 -6.246094 L 7.898438 -0.546875 L 2.003906 -9.132812 L 0.988281 -9.132812 L 0.988281 -3.082031 C 0.988281 -1.9375 0.949219 -1.039062 0.691406 0 Z M 1.484375 0 "/></g></g></g><g fill="#ffffff" fill-opacity="1"><g transform="translate(66.210028, 22.944079)"><g><path d="M 2.148438 0 L 2.148438 -9.132812 L 0.847656 -9.132812 L 0.847656 0 Z M 2.148438 0 "/></g></g></g><g fill="#ffffff" fill-opacity="1"><g transform="translate(69.202356, 22.944079)"><g><path d="M 5.765625 0.195312 C 6.648438 0.195312 7.597656 0.0390625 8.601562 -0.261719 L 8.507812 -1.210938 C 7.769531 -0.808594 6.949219 -0.0117188 6.234375 -0.0117188 C 3.785156 -0.0117188 1.953125 -2.015625 1.953125 -4.632812 C 1.953125 -7.46875 3.550781 -9.199219 6.0625 -9.199219 C 6.832031 -9.199219 7.625 -8.46875 8.535156 -7.949219 L 8.601562 -8.875 C 7.613281 -9.226562 6.636719 -9.40625 5.726562 -9.40625 C 2.886719 -9.40625 0.652344 -7.753906 0.652344 -4.632812 C 0.652344 -1.535156 2.769531 0.195312 5.765625 0.195312 Z M 5.765625 0.195312 "/></g></g></g><g fill="#ffffff" fill-opacity="1"><g transform="translate(78.283424, 22.944079)"><g/></g></g><g fill="#ffffff" fill-opacity="1"><g transform="translate(81.275752, 22.944079)"><g><path d="M 3.890625 0 C 6.167969 0 8.289062 -1.351562 8.289062 -4.734375 C 8.289062 -7.714844 6.699219 -9.132812 4.125 -9.132812 L 0.847656 -9.132812 L 0.847656 0 Z M 2.148438 -8.9375 L 3.527344 -8.9375 C 5.894531 -8.953125 6.988281 -7.675781 6.988281 -4.734375 C 6.988281 -1.171875 5.53125 -0.195312 3.304688 -0.195312 L 2.148438 -0.195312 Z M 2.148438 -8.9375 "/></g></g></g><g fill="#ffffff" fill-opacity="1"><g transform="translate(90.213708, 22.944079)"><g><path d="M 1.390625 -8.328125 C 1.796875 -8.328125 2.121094 -8.652344 2.121094 -9.054688 C 2.121094 -9.460938 1.796875 -9.785156 1.390625 -9.785156 C 0.988281 -9.785156 0.664062 -9.460938 0.664062 -9.054688 C 0.664062 -8.652344 0.988281 -8.328125 1.390625 -8.328125 Z M 2.042969 0 L 2.042969 -7.519531 L 0.742188 -7.519531 L 0.742188 0 Z M 2.042969 0 "/></g></g></g><g fill="#ffffff" fill-opacity="1"><g transform="translate(93.036905, 22.944079)"><g><path d="M 2.367188 3.1875 C 5.164062 3.1875 7.078125 1.417969 7.078125 -1.390625 L 7.078125 -7.519531 L 5.777344 -7.519531 L 5.777344 -7 C 5.0625 -7.507812 4.347656 -7.730469 3.707031 -7.730469 C 1.914062 -7.730469 0.519531 -6.0625 0.519531 -3.707031 C 0.519531 -0.910156 1.964844 0.222656 3.371094 0.222656 C 4.359375 0.222656 5.296875 -0.417969 5.738281 -1.546875 L 5.777344 -1.546875 L 5.777344 -0.664062 C 5.777344 1.429688 4.878906 2.953125 3.1875 2.953125 C 2.523438 2.953125 1.691406 2.679688 0.703125 2.042969 L 0.507812 2.953125 C 1.15625 3.109375 1.78125 3.1875 2.367188 3.1875 Z M 3.734375 -0.167969 C 2.640625 -0.167969 1.757812 -1.507812 1.757812 -3.734375 C 1.757812 -5.632812 2.589844 -7.441406 4.097656 -7.441406 C 4.578125 -7.441406 5.152344 -7.234375 5.777344 -6.777344 L 5.777344 -2.460938 C 5.570312 -0.960938 4.632812 -0.167969 3.734375 -0.167969 Z M 3.734375 -0.167969 "/></g></g></g><g fill="#ffffff" fill-opacity="1"><g transform="translate(101.064152, 22.944079)"><g><path d="M 1.390625 -8.328125 C 1.796875 -8.328125 2.121094 -8.652344 2.121094 -9.054688 C 2.121094 -9.460938 1.796875 -9.785156 1.390625 -9.785156 C 0.988281 -9.785156 0.664062 -9.460938 0.664062 -9.054688 C 0.664062 -8.652344 0.988281 -8.328125 1.390625 -8.328125 Z M 2.042969 0 L 2.042969 -7.519531 L 0.742188 -7.519531 L 0.742188 0 Z M 2.042969 0 "/></g></g></g><g fill="#ffffff" fill-opacity="1"><g transform="translate(103.887349, 22.944079)"><g><path d="M 3.550781 0.246094 C 4.425781 0.246094 5.308594 -0.167969 5.804688 -1.066406 L 5.4375 -1.859375 C 4.90625 -0.613281 4.074219 0.0898438 3.371094 0.0898438 C 2.769531 0.0898438 2.277344 -0.390625 2.277344 -1.351562 L 2.277344 -7.339844 L 4.269531 -7.339844 L 4.269531 -7.519531 L 2.277344 -7.519531 L 2.265625 -10.433594 L 2.09375 -10.433594 C 2.09375 -9.277344 1.796875 -8.222656 1.15625 -7.519531 L 0.195312 -7.519531 L 0.195312 -7.339844 L 0.976562 -7.339844 L 0.976562 -2.210938 C 0.976562 -0.652344 2.25 0.246094 3.550781 0.246094 Z M 3.550781 0.246094 "/></g></g></g><g fill="#ffffff" fill-opacity="1"><g transform="translate(109.806956, 22.944079)"><g><path d="M 3.019531 0.195312 C 3.996094 0.195312 5.023438 -0.351562 5.765625 -1.15625 L 5.765625 0 L 7.066406 0 L 7.066406 -5.4375 C 7.066406 -7.144531 5.828125 -7.753906 4.320312 -7.753906 C 3.304688 -7.753906 2.171875 -7.480469 1.25 -7.050781 L 1.507812 -6.050781 C 2.316406 -6.988281 3.410156 -7.597656 4.359375 -7.597656 C 5.191406 -7.597656 5.765625 -7.089844 5.765625 -6.011719 C 3.109375 -5.398438 0.558594 -4.359375 0.558594 -2.09375 C 0.558594 -0.742188 1.484375 0.195312 3.019531 0.195312 Z M 3.527344 -0.222656 C 2.601562 -0.222656 1.859375 -0.898438 1.859375 -2.289062 C 1.859375 -3.941406 2.835938 -5.191406 5.765625 -5.828125 L 5.765625 -1.339844 C 5.191406 -0.714844 4.292969 -0.222656 3.527344 -0.222656 Z M 3.527344 -0.222656 "/></g></g></g><g fill="#ffffff" fill-opacity="1"><g transform="translate(117.691092, 22.944079)"><g><path d="M 2.210938 0 L 2.210938 -9.132812 L 0.910156 -9.132812 L 0.910156 0 Z M 2.210938 0 "/></g></g></g><g clip-path="url(#e0acfb4d59)"><path fill="#f1abaf" d="M 18.855469 3.988281 C 10.882812 3.988281 4.421875 10.449219 4.421875 18.417969 C 4.421875 26.390625 10.882812 32.851562 18.855469 32.851562 C 26.824219 32.851562 33.289062 26.390625 33.289062 18.417969 C 33.289062 10.449219 26.824219 3.988281 18.855469 3.988281 " fill-opacity="1" fill-rule="nonzero"/></g><g fill="#ffffff" fill-opacity="0.4"><g transform="translate(16.600499, 28.13823)"><g><path d="M 1.421875 0 L 3.785156 0 L 3.785156 -20.058594 L 1.421875 -20.058594 Z M 1.421875 0 "/></g></g></g><g fill="#ffffff" fill-opacity="1"><g transform="translate(16.248394, 27.786125)"><g><path d="M 1.421875 0 L 3.785156 0 L 3.785156 -20.058594 L 1.421875 -20.058594 Z M 1.421875 0 "/></g></g></g><g clip-path="url(#8105fecce0)"><path fill="#f8c6fa" d="M 9.875 16.460938 C 9.703125 16.695312 9.703125 17.070312 9.875 17.300781 L 9.941406 17.390625 L 9.875 17.480469 C 9.703125 17.710938 9.703125 18.089844 9.875 18.320312 C 9.964844 18.445312 10.085938 18.5 10.207031 18.492188 C 10.34375 18.484375 10.46875 18.375 10.535156 18.207031 C 10.613281 18.011719 10.808594 17.605469 11.179688 17.390625 C 10.808594 17.175781 10.613281 16.773438 10.535156 16.574219 C 10.46875 16.410156 10.34375 16.296875 10.207031 16.289062 C 10.085938 16.28125 9.964844 16.339844 9.875 16.460938 Z M 9.875 16.460938 " fill-opacity="1" fill-rule="nonzero"/></g><g clip-path="url(#d9d87d6138)"><path fill="#f8c6fa" d="M 28.507812 18.480469 C 28.765625 18.25 28.765625 17.871094 28.507812 17.640625 L 28.40625 17.550781 L 28.507812 17.460938 C 28.765625 17.230469 28.765625 16.851562 28.507812 16.621094 C 28.371094 16.5 28.191406 16.441406 28.011719 16.449219 C 27.804688 16.457031 27.617188 16.566406 27.519531 16.734375 C 27.402344 16.929688 27.105469 17.335938 26.550781 17.550781 C 27.105469 17.765625 27.402344 18.171875 27.519531 18.367188 C 27.617188 18.535156 27.804688 18.644531 28.011719 18.652344 C 28.191406 18.660156 28.371094 18.601562 28.507812 18.480469 Z M 28.507812 18.480469 " fill-opacity="1" fill-rule="nonzero"/></g></svg>