<svg xmlns="http://www.w3.org/2000/svg" xmlns:xlink="http://www.w3.org/1999/xlink" width="200" zoomAndPan="magnify" viewBox="0 0 150 37.5" height="50" preserveAspectRatio="xMidYMid meet" version="1.0"><defs><g/><clipPath id="9deeab47fa"><path d="M 3.761719 1.089844 L 38.550781 1.089844 L 38.550781 35.875 L 3.761719 35.875 Z M 3.761719 1.089844 " clip-rule="nonzero"/></clipPath><clipPath id="e4d27dbe61"><path d="M 5.632812 17.21875 L 8.59375 17.21875 L 8.59375 20.179688 L 5.632812 20.179688 Z M 5.632812 17.21875 " clip-rule="nonzero"/></clipPath><clipPath id="880ec672c1"><path d="M 32.628906 16.679688 L 35.984375 16.679688 L 35.984375 20.183594 L 32.628906 20.183594 Z M 32.628906 16.679688 " clip-rule="nonzero"/></clipPath></defs><g fill="#ffffff" fill-opacity="1"><g transform="translate(48.374154, 22.700543)"><g><path d="M 2.878906 0 L 2.878906 -9.621094 L 0.683594 -9.621094 L 0.683594 0 Z M 2.878906 0 "/></g></g></g><g fill="#ffffff" fill-opacity="1"><g transform="translate(51.937189, 22.700543)"><g><path d="M 6.003906 0.21875 C 6.992188 0.21875 8.046875 0.0546875 9.15625 -0.261719 L 8.964844 -1.726562 C 8.265625 -1.191406 7.359375 -0.0703125 6.621094 -0.0703125 C 4.332031 -0.0703125 2.671875 -2.277344 2.671875 -4.757812 C 2.671875 -7.828125 4.085938 -9.582031 6.566406 -9.582031 C 7.304688 -9.582031 8.074219 -8.621094 9.019531 -7.910156 L 9.15625 -9.320312 C 8.074219 -9.691406 6.992188 -9.882812 5.976562 -9.882812 C 2.933594 -9.882812 0.480469 -8.15625 0.480469 -4.757812 C 0.480469 -1.507812 2.78125 0.21875 6.003906 0.21875 Z M 6.003906 0.21875 "/></g></g></g><g fill="#ffffff" fill-opacity="1"><g transform="translate(61.392929, 22.700543)"><g><path d="M 5.375 0.21875 C 8.703125 0.21875 10.265625 -2 10.265625 -4.769531 C 10.265625 -7.894531 8.703125 -9.839844 5.375 -9.839844 C 2.042969 -9.839844 0.480469 -7.894531 0.480469 -4.769531 C 0.480469 -2 2.042969 0.21875 5.375 0.21875 Z M 5.375 -0.015625 C 3.414062 -0.015625 2.671875 -2.207031 2.671875 -4.769531 C 2.671875 -7.277344 3.207031 -9.609375 5.375 -9.609375 C 7.429688 -9.609375 8.074219 -7.277344 8.074219 -4.769531 C 8.074219 -2.207031 7.429688 -0.015625 5.375 -0.015625 Z M 5.375 -0.015625 "/></g></g></g><g fill="#ffffff" fill-opacity="1"><g transform="translate(72.136842, 22.700543)"><g><path d="M 1.617188 0 C 1.289062 -1.109375 1.234375 -2.207031 1.234375 -3.222656 L 1.21875 -8.277344 L 7.074219 0 L 8.867188 0 L 8.867188 -6.59375 C 8.867188 -7.511719 8.976562 -8.71875 9.238281 -9.621094 L 8.25 -9.621094 C 8.511719 -8.71875 8.621094 -7.523438 8.621094 -6.59375 L 8.621094 -0.945312 L 2.480469 -9.621094 L 1 -9.621094 L 1 -3.222656 C 1 -2.054688 0.945312 -1.109375 0.617188 0 Z M 1.617188 0 "/></g></g></g><g fill="#ffffff" fill-opacity="1"><g transform="translate(81.811846, 22.700543)"><g><path d="M 2.878906 0 L 2.878906 -9.621094 L 0.683594 -9.621094 L 0.683594 0 Z M 2.878906 0 "/></g></g></g><g fill="#ffffff" fill-opacity="1"><g transform="translate(85.374881, 22.700543)"><g><path d="M 6.003906 0.21875 C 6.992188 0.21875 8.046875 0.0546875 9.15625 -0.261719 L 8.964844 -1.726562 C 8.265625 -1.191406 7.359375 -0.0703125 6.621094 -0.0703125 C 4.332031 -0.0703125 2.671875 -2.277344 2.671875 -4.757812 C 2.671875 -7.828125 4.085938 -9.582031 6.566406 -9.582031 C 7.304688 -9.582031 8.074219 -8.621094 9.019531 -7.910156 L 9.15625 -9.320312 C 8.074219 -9.691406 6.992188 -9.882812 5.976562 -9.882812 C 2.933594 -9.882812 0.480469 -8.15625 0.480469 -4.757812 C 0.480469 -1.507812 2.78125 0.21875 6.003906 0.21875 Z M 6.003906 0.21875 "/></g></g></g><g fill="#ffffff" fill-opacity="1"><g transform="translate(94.830622, 22.700543)"><g/></g></g><g fill="#ffffff" fill-opacity="1"><g transform="translate(97.982539, 22.700543)"><g><path d="M 4.453125 0 C 6.757812 0 9.199219 -1.425781 9.199219 -4.988281 C 9.199219 -8.128906 7.441406 -9.621094 4.550781 -9.621094 L 0.683594 -9.621094 L 0.683594 0 Z M 2.878906 -9.347656 L 3.976562 -9.347656 C 5.742188 -9.363281 7.003906 -8.265625 7.003906 -4.988281 C 7.003906 -1.207031 5.59375 -0.261719 3.632812 -0.261719 L 2.878906 -0.261719 Z M 2.878906 -9.347656 "/></g></g></g><g fill="#ffffff" fill-opacity="1"><g transform="translate(107.657543, 22.700543)"><g><path d="M 1.78125 -8.5 C 2.414062 -8.5 2.90625 -8.992188 2.90625 -9.621094 C 2.90625 -10.253906 2.414062 -10.746094 1.78125 -10.746094 C 1.152344 -10.746094 0.65625 -10.253906 0.65625 -9.621094 C 0.65625 -8.992188 1.152344 -8.5 1.78125 -8.5 Z M 2.878906 0 L 2.878906 -7.921875 L 0.683594 -7.921875 L 0.683594 0 Z M 2.878906 0 "/></g></g></g><g fill="#ffffff" fill-opacity="1"><g transform="translate(111.234277, 22.700543)"><g><path d="M 2.671875 3.359375 C 5.921875 3.359375 8.15625 1.492188 8.15625 -1.464844 L 8.15625 -7.921875 L 5.960938 -7.921875 L 5.960938 -7.566406 C 5.320312 -7.9375 4.660156 -8.113281 4.042969 -8.113281 C 2.070312 -8.113281 0.425781 -6.484375 0.425781 -3.878906 C 0.425781 -0.917969 1.988281 0.207031 3.480469 0.207031 C 4.496094 0.207031 5.46875 -0.34375 5.933594 -1.300781 L 5.960938 -1.300781 L 5.960938 -0.0273438 C 5.960938 1.753906 5.289062 3.042969 3.878906 3.042969 C 3.140625 3.042969 2.164062 2.644531 0.917969 1.742188 L 0.507812 3.113281 C 1.273438 3.277344 1.988281 3.359375 2.671875 3.359375 Z M 4.277344 -0.4375 C 3.195312 -0.4375 2.480469 -1.988281 2.480469 -3.933594 C 2.480469 -5.824219 3.222656 -7.703125 4.660156 -7.703125 C 5.042969 -7.703125 5.484375 -7.582031 5.960938 -7.265625 L 5.960938 -2.015625 C 5.648438 -0.960938 4.949219 -0.4375 4.277344 -0.4375 Z M 4.277344 -0.4375 "/></g></g></g><g fill="#ffffff" fill-opacity="1"><g transform="translate(120.196672, 22.700543)"><g><path d="M 1.78125 -8.5 C 2.414062 -8.5 2.90625 -8.992188 2.90625 -9.621094 C 2.90625 -10.253906 2.414062 -10.746094 1.78125 -10.746094 C 1.152344 -10.746094 0.65625 -10.253906 0.65625 -9.621094 C 0.65625 -8.992188 1.152344 -8.5 1.78125 -8.5 Z M 2.878906 0 L 2.878906 -7.921875 L 0.683594 -7.921875 L 0.683594 0 Z M 2.878906 0 "/></g></g></g><g fill="#ffffff" fill-opacity="1"><g transform="translate(123.773406, 22.700543)"><g><path d="M 4.125 0.261719 C 5.058594 0.261719 6.015625 -0.136719 6.660156 -0.960938 L 6.183594 -2.277344 C 5.484375 -0.878906 4.59375 0.0273438 3.867188 0.0273438 C 3.386719 0.0273438 3.015625 -0.410156 3.015625 -1.34375 L 3.015625 -7.691406 L 5.003906 -7.691406 L 5.003906 -7.921875 L 3.015625 -7.921875 L 3.015625 -10.992188 L 2.769531 -10.992188 C 2.769531 -9.9375 2.207031 -8.511719 1.21875 -7.921875 L 0 -7.921875 L 0 -7.691406 L 0.824219 -7.691406 L 0.824219 -2.714844 C 0.824219 -0.878906 2.46875 0.261719 4.125 0.261719 Z M 4.125 0.261719 "/></g></g></g><g fill="#ffffff" fill-opacity="1"><g transform="translate(130.310203, 22.700543)"><g><path d="M 3.207031 0.207031 C 4.277344 0.207031 5.332031 -0.492188 5.988281 -1.273438 L 5.988281 0 L 8.183594 0 L 8.183594 -5.730469 C 8.183594 -7.496094 6.769531 -8.183594 5.003906 -8.183594 C 3.851562 -8.183594 2.550781 -7.894531 1.398438 -7.429688 L 1.808594 -5.851562 C 2.660156 -7.128906 3.796875 -7.949219 4.824219 -7.949219 C 5.578125 -7.949219 5.988281 -7.386719 5.988281 -6.332031 C 3.441406 -5.578125 0.519531 -4.59375 0.519531 -2.097656 C 0.519531 -0.917969 1.371094 0.207031 3.207031 0.207031 Z M 4.234375 -0.5625 C 3.371094 -0.5625 2.714844 -1.34375 2.714844 -2.578125 C 2.714844 -4.371094 3.699219 -5.402344 5.988281 -6.101562 L 5.988281 -1.507812 C 5.457031 -0.972656 4.8125 -0.5625 4.234375 -0.5625 Z M 4.234375 -0.5625 "/></g></g></g><g fill="#ffffff" fill-opacity="1"><g transform="translate(139.162972, 22.700543)"><g><path d="M 2.945312 0 L 2.945312 -9.621094 L 0.753906 -9.621094 L 0.753906 0 Z M 2.945312 0 "/></g></g></g><g clip-path="url(#9deeab47fa)"><path fill="#f1abaf" d="M 21.15625 1.089844 C 11.550781 1.089844 3.761719 8.875 3.761719 18.480469 C 3.761719 28.089844 11.550781 35.875 21.15625 35.875 C 30.761719 35.875 38.550781 28.089844 38.550781 18.480469 C 38.550781 8.875 30.761719 1.089844 21.15625 1.089844 " fill-opacity="1" fill-rule="nonzero"/></g><g fill="#ffffff" fill-opacity="0.4"><g transform="translate(15.705542, 29.244297)"><g><path d="M 9.925781 -0.558594 C 7.683594 -0.558594 6.9375 -1.152344 6.9375 -3.359375 L 6.9375 -17.796875 C 6.9375 -20.007812 7.683594 -20.597656 9.925781 -20.597656 L 9.925781 -21.15625 L 0.714844 -21.15625 L 0.714844 -20.597656 C 2.957031 -20.597656 3.703125 -20.007812 3.703125 -17.796875 L 3.703125 -3.359375 C 3.703125 -1.152344 2.957031 -0.558594 0.714844 -0.558594 L 0.714844 0 L 9.925781 0 Z M 9.925781 -0.558594 "/></g></g></g><g fill="#ffffff" fill-opacity="1"><g transform="translate(15.320464, 28.85922)"><g><path d="M 9.925781 -0.558594 C 7.683594 -0.558594 6.9375 -1.152344 6.9375 -3.359375 L 6.9375 -17.796875 C 6.9375 -20.007812 7.683594 -20.597656 9.925781 -20.597656 L 9.925781 -21.15625 L 0.714844 -21.15625 L 0.714844 -20.597656 C 2.957031 -20.597656 3.703125 -20.007812 3.703125 -17.796875 L 3.703125 -3.359375 C 3.703125 -1.152344 2.957031 -0.558594 0.714844 -0.558594 L 0.714844 0 L 9.925781 0 Z M 9.925781 -0.558594 "/></g></g></g><g clip-path="url(#e4d27dbe61)"><path fill="#f8c6fa" d="M 5.976562 17.460938 C 5.632812 17.769531 5.632812 18.269531 5.976562 18.582031 L 6.109375 18.699219 L 5.976562 18.820312 C 5.632812 19.128906 5.632812 19.628906 5.976562 19.9375 C 6.15625 20.101562 6.398438 20.179688 6.640625 20.167969 C 6.917969 20.15625 7.167969 20.007812 7.296875 19.789062 C 7.453125 19.527344 7.851562 18.984375 8.59375 18.699219 C 7.851562 18.414062 7.453125 17.875 7.296875 17.609375 C 7.167969 17.390625 6.917969 17.242188 6.636719 17.230469 C 6.398438 17.21875 6.15625 17.296875 5.976562 17.460938 Z M 5.976562 17.460938 " fill-opacity="1" fill-rule="nonzero"/></g><g clip-path="url(#880ec672c1)"><path fill="#f8c6fa" d="M 35.554688 20.078125 C 35.980469 19.691406 35.980469 19.066406 35.554688 18.679688 L 35.386719 18.53125 L 35.554688 18.382812 C 35.980469 17.996094 35.980469 17.367188 35.554688 16.980469 C 35.324219 16.777344 35.023438 16.679688 34.726562 16.691406 C 34.375 16.707031 34.066406 16.894531 33.902344 17.167969 C 33.707031 17.496094 33.210938 18.171875 32.285156 18.53125 C 33.210938 18.886719 33.707031 19.5625 33.902344 19.890625 C 34.066406 20.167969 34.378906 20.351562 34.726562 20.367188 C 35.023438 20.378906 35.324219 20.285156 35.554688 20.078125 Z M 35.554688 20.078125 " fill-opacity="1" fill-rule="nonzero"/></g></svg>