<svg xmlns="http://www.w3.org/2000/svg" xmlns:xlink="http://www.w3.org/1999/xlink" width="90" zoomAndPan="magnify" viewBox="0 0 67.5 67.499996" height="90" preserveAspectRatio="xMidYMid meet" version="1.0"><defs><g/><clipPath id="80373523dc"><path d="M 0 0 L 67.003906 0 L 67.003906 67.003906 L 0 67.003906 Z M 0 0 " clip-rule="nonzero"/></clipPath><clipPath id="c3429a70b6"><path d="M 3 24.855469 L 7.46875 24.855469 L 7.46875 29.355469 L 3 29.355469 Z M 3 24.855469 " clip-rule="nonzero"/></clipPath><clipPath id="c3de0ae735"><path d="M 60.753906 24.972656 L 64.9375 24.972656 L 64.9375 29.355469 L 60.753906 29.355469 Z M 60.753906 24.972656 " clip-rule="nonzero"/></clipPath></defs><g clip-path="url(#80373523dc)"><path fill="#f1abaf" d="M 33.75 0 C 15.109375 0 0 15.109375 0 33.75 C 0 52.390625 15.109375 67.5 33.75 67.5 C 52.390625 67.5 67.5 52.390625 67.5 33.75 C 67.5 15.109375 52.390625 0 33.75 0 " fill-opacity="1" fill-rule="nonzero"/></g><g fill="#ffffff" fill-opacity="1"><g transform="translate(8.895376, 22.860422)"><g><path d="M 0.847656 -1.359375 L -3.699219 -4.1875 L -4.34375 -3.152344 L 0.203125 -0.324219 Z M 0.847656 -1.359375 "/></g></g></g><g fill="#ffffff" fill-opacity="1"><g transform="translate(9.976565, 20.944817)"><g><path d="M 2.222656 -2.496094 C 2.570312 -2.917969 2.875 -3.429688 3.132812 -4.019531 L 2.433594 -4.457031 C 2.417969 -3.964844 2.578125 -3.179688 2.316406 -2.863281 C 1.503906 -1.882812 -0.0273438 -1.953125 -1.09375 -2.832031 C -2.410156 -3.917969 -2.660156 -5.144531 -1.78125 -6.210938 C -1.519531 -6.527344 -0.835938 -6.515625 -0.195312 -6.667969 L -0.753906 -7.226562 C -1.296875 -6.894531 -1.761719 -6.5 -2.121094 -6.0625 C -3.199219 -4.757812 -3.328125 -3.09375 -1.871094 -1.890625 C -0.476562 -0.738281 1.078125 -1.117188 2.222656 -2.496094 Z M 2.222656 -2.496094 "/></g></g></g><g fill="#ffffff" fill-opacity="1"><g transform="translate(13.343737, 16.8209)"><g><path d="M 2.398438 -1.789062 C 3.835938 -2.957031 3.730469 -4.464844 2.757812 -5.660156 C 1.664062 -7.007812 0.304688 -7.300781 -1.132812 -6.132812 C -2.570312 -4.964844 -2.5625 -3.578125 -1.464844 -2.226562 C -0.496094 -1.03125 0.957031 -0.621094 2.398438 -1.789062 Z M 2.316406 -1.890625 C 1.46875 -1.203125 0.378906 -1.890625 -0.519531 -2.996094 C -1.398438 -4.078125 -1.984375 -5.273438 -1.050781 -6.03125 C -0.164062 -6.753906 0.933594 -5.972656 1.8125 -4.890625 C 2.710938 -3.785156 3.203125 -2.609375 2.316406 -1.890625 Z M 2.316406 -1.890625 "/></g></g></g><g fill="#ffffff" fill-opacity="1"><g transform="translate(18.045508, 13.048152)"><g><path d="M 0.796875 -0.417969 C 0.347656 -0.878906 0.0390625 -1.40625 -0.222656 -1.90625 L -1.535156 -4.394531 L 3.484375 -1.824219 L 4.371094 -2.289062 L 2.671875 -5.535156 C 2.433594 -5.988281 2.175781 -6.613281 2.070312 -7.125 L 1.585938 -6.871094 C 1.945312 -6.492188 2.308594 -5.933594 2.546875 -5.472656 L 4.003906 -2.691406 L -1.257812 -5.382812 L -1.988281 -5 L -0.335938 -1.84375 C -0.0390625 -1.269531 0.179688 -0.792969 0.304688 -0.160156 Z M 0.796875 -0.417969 "/></g></g></g><g fill="#ffffff" fill-opacity="1"><g transform="translate(23.046556, 10.575746)"><g><path d="M 1.507812 -0.542969 L -0.3125 -5.578125 L -1.457031 -5.164062 L 0.359375 -0.128906 Z M 1.507812 -0.542969 "/></g></g></g><g fill="#ffffff" fill-opacity="1"><g transform="translate(25.082147, 9.740195)"><g><path d="M 3.289062 -0.585938 C 3.828125 -0.699219 4.382812 -0.914062 4.949219 -1.214844 L 4.671875 -1.992188 C 4.355469 -1.617188 3.992188 -0.902344 3.589844 -0.8125 C 2.347656 -0.546875 1.1875 -1.550781 0.894531 -2.898438 C 0.535156 -4.570312 1.097656 -5.6875 2.445312 -5.980469 C 2.847656 -6.066406 3.378906 -5.632812 3.976562 -5.359375 L 3.886719 -6.140625 C 3.253906 -6.214844 2.640625 -6.191406 2.089844 -6.074219 C 0.4375 -5.71875 -0.695312 -4.492188 -0.296875 -2.640625 C 0.0859375 -0.875 1.539062 -0.207031 3.289062 -0.585938 Z M 3.289062 -0.585938 "/></g></g></g><g fill="#ffffff" fill-opacity="1"><g transform="translate(30.455279, 8.711796)"><g/></g></g><g fill="#ffffff" fill-opacity="1"><g transform="translate(32.414448, 8.44435)"><g><path d="M 2.476562 0.125 C 3.753906 0.1875 5.148438 -0.535156 5.246094 -2.515625 C 5.335938 -4.261719 4.402344 -5.140625 2.796875 -5.21875 L 0.648438 -5.328125 L 0.378906 0.0195312 Z M 1.859375 -5.113281 L 2.46875 -5.082031 C 3.449219 -5.042969 4.121094 -4.398438 4.03125 -2.578125 C 3.925781 -0.476562 3.113281 0.0117188 2.023438 -0.0429688 L 1.605469 -0.0664062 Z M 1.859375 -5.113281 "/></g></g></g><g fill="#ffffff" fill-opacity="1"><g transform="translate(37.978268, 8.851312)"><g><path d="M 1.574219 0.296875 L 2.5625 -4.964844 L 1.363281 -5.191406 L 0.375 0.0703125 Z M 1.574219 0.296875 "/></g></g></g><g fill="#ffffff" fill-opacity="1"><g transform="translate(40.140294, 9.125808)"><g><path d="M 3.265625 1.242188 C 3.894531 1.457031 4.617188 1.550781 5.394531 1.519531 L 6.203125 -0.832031 L 5.046875 -1.226562 L 4.191406 1.269531 C 3.929688 1.277344 3.6875 1.234375 3.472656 1.160156 C 2.339844 0.769531 1.707031 -0.390625 2.304688 -2.136719 C 2.828125 -3.664062 3.847656 -4.304688 4.886719 -3.949219 C 5.460938 -3.753906 6.054688 -3.226562 6.578125 -2.355469 L 6.863281 -3.0625 C 6.308594 -3.492188 5.714844 -3.808594 5.132812 -4.011719 C 3.394531 -4.605469 1.710938 -4.167969 1.152344 -2.53125 C 0.550781 -0.785156 1.550781 0.652344 3.265625 1.242188 Z M 3.265625 1.242188 "/></g></g></g><g fill="#ffffff" fill-opacity="1"><g transform="translate(45.868772, 11.255934)"><g><path d="M 1.421875 0.734375 L 3.871094 -4.027344 L 2.789062 -4.585938 L 0.339844 0.175781 Z M 1.421875 0.734375 "/></g></g></g><g fill="#ffffff" fill-opacity="1"><g transform="translate(47.86988, 12.191934)"><g><path d="M 2.570312 1.777344 L 5.542969 -2.519531 C 6.238281 -2.039062 6.457031 -1.617188 6.65625 -0.980469 L 7.089844 -1.605469 L 3.136719 -4.335938 L 2.703125 -3.710938 C 3.378906 -3.746094 3.867188 -3.675781 4.539062 -3.210938 L 1.566406 1.082031 Z M 2.570312 1.777344 "/></g></g></g><g fill="#ffffff" fill-opacity="1"><g transform="translate(52.059492, 15.056268)"><g><path d="M 0.933594 0.953125 L 3.257812 -0.0234375 L 4.855469 1.601562 L 4.679688 1.976562 C 4.34375 2.734375 3.824219 3.308594 3.550781 3.617188 L 3.925781 4 L 6.25 -1.273438 L 5.394531 -2.144531 L 0.0820312 0.0820312 Z M 6.082031 -1.207031 L 4.910156 1.472656 L 3.386719 -0.078125 Z M 6.082031 -1.207031 "/></g></g></g><g fill="#ffffff" fill-opacity="1"><g transform="translate(56.083923, 19.248121)"><g><path d="M 2.359375 3.476562 L 2.988281 3.050781 C 2.140625 2.640625 1.652344 2.207031 1.003906 1.253906 L 5.328125 -1.679688 L 4.644531 -2.6875 L 0.214844 0.316406 Z M 2.359375 3.476562 "/></g></g></g><g fill="#ffffff" fill-opacity="0.4"><g transform="translate(24.455118, 55.64927)"><g><path d="M 5.96875 -1.25 C 6.925781 -1.25 7.695312 -1.488281 8.28125 -1.96875 C 8.863281 -2.457031 9.320312 -3.097656 9.65625 -3.890625 C 10 -4.679688 10.234375 -5.585938 10.359375 -6.609375 C 10.484375 -7.640625 10.546875 -8.679688 10.546875 -9.734375 C 10.546875 -13.203125 10.429688 -16.578125 10.203125 -19.859375 C 9.972656 -23.148438 9.859375 -26.425781 9.859375 -29.6875 C 9.859375 -31.070312 9.910156 -32.523438 10.015625 -34.046875 C 10.117188 -35.578125 10.296875 -37.050781 10.546875 -38.46875 C 8.160156 -38.132812 6.234375 -37.53125 4.765625 -36.65625 C 3.304688 -35.78125 2.578125 -34.566406 2.578125 -33.015625 C 2.578125 -32.429688 2.753906 -31.976562 3.109375 -31.65625 C 3.460938 -31.34375 3.835938 -31.070312 4.234375 -30.84375 C 4.628906 -30.613281 5.003906 -30.394531 5.359375 -30.1875 C 5.722656 -29.976562 5.90625 -29.707031 5.90625 -29.375 C 5.90625 -28.914062 5.566406 -28.6875 4.890625 -28.6875 C 4.472656 -28.6875 4.046875 -28.8125 3.609375 -29.0625 C 3.171875 -29.3125 2.773438 -29.644531 2.421875 -30.0625 C 2.066406 -30.476562 1.769531 -30.957031 1.53125 -31.5 C 1.300781 -32.050781 1.1875 -32.640625 1.1875 -33.265625 C 1.1875 -34.179688 1.414062 -35.109375 1.875 -36.046875 C 2.34375 -36.992188 2.992188 -37.851562 3.828125 -38.625 C 4.660156 -39.40625 5.660156 -40.046875 6.828125 -40.546875 C 8.003906 -41.046875 9.304688 -41.296875 10.734375 -41.296875 C 11.734375 -41.296875 12.335938 -40.992188 12.546875 -40.390625 C 12.753906 -39.785156 12.859375 -38.894531 12.859375 -37.71875 C 12.859375 -36.84375 12.890625 -35.796875 12.953125 -34.578125 C 13.023438 -33.367188 13.113281 -32.039062 13.21875 -30.59375 C 13.320312 -29.15625 13.40625 -27.628906 13.46875 -26.015625 C 13.53125 -24.398438 13.5625 -22.757812 13.5625 -21.09375 C 13.5625 -20.59375 13.570312 -20.015625 13.59375 -19.359375 C 13.613281 -18.710938 13.625 -18.03125 13.625 -17.3125 C 13.625 -16.601562 13.632812 -15.882812 13.65625 -15.15625 C 13.675781 -14.425781 13.6875 -13.75 13.6875 -13.125 C 13.6875 -11.445312 13.601562 -9.8125 13.4375 -8.21875 C 13.269531 -6.632812 12.910156 -5.234375 12.359375 -4.015625 C 11.816406 -2.804688 11.039062 -1.820312 10.03125 -1.0625 C 9.03125 -0.3125 7.675781 0.0625 5.96875 0.0625 C 5.289062 0.0625 4.691406 -0.0507812 4.171875 -0.28125 C 3.648438 -0.507812 3.203125 -0.789062 2.828125 -1.125 C 2.453125 -1.457031 2.164062 -1.8125 1.96875 -2.1875 C 1.78125 -2.570312 1.6875 -2.910156 1.6875 -3.203125 C 1.6875 -3.703125 1.859375 -3.953125 2.203125 -3.953125 C 2.492188 -3.953125 2.753906 -3.816406 2.984375 -3.546875 C 3.210938 -3.273438 3.453125 -2.960938 3.703125 -2.609375 C 3.953125 -2.253906 4.253906 -1.9375 4.609375 -1.65625 C 4.960938 -1.382812 5.414062 -1.25 5.96875 -1.25 Z M 5.96875 -1.25 "/></g></g></g><g fill="#ffffff" fill-opacity="1"><g transform="translate(23.678346, 54.872498)"><g><path d="M 5.96875 -1.25 C 6.925781 -1.25 7.695312 -1.488281 8.28125 -1.96875 C 8.863281 -2.457031 9.320312 -3.097656 9.65625 -3.890625 C 10 -4.679688 10.234375 -5.585938 10.359375 -6.609375 C 10.484375 -7.640625 10.546875 -8.679688 10.546875 -9.734375 C 10.546875 -13.203125 10.429688 -16.578125 10.203125 -19.859375 C 9.972656 -23.148438 9.859375 -26.425781 9.859375 -29.6875 C 9.859375 -31.070312 9.910156 -32.523438 10.015625 -34.046875 C 10.117188 -35.578125 10.296875 -37.050781 10.546875 -38.46875 C 8.160156 -38.132812 6.234375 -37.53125 4.765625 -36.65625 C 3.304688 -35.78125 2.578125 -34.566406 2.578125 -33.015625 C 2.578125 -32.429688 2.753906 -31.976562 3.109375 -31.65625 C 3.460938 -31.34375 3.835938 -31.070312 4.234375 -30.84375 C 4.628906 -30.613281 5.003906 -30.394531 5.359375 -30.1875 C 5.722656 -29.976562 5.90625 -29.707031 5.90625 -29.375 C 5.90625 -28.914062 5.566406 -28.6875 4.890625 -28.6875 C 4.472656 -28.6875 4.046875 -28.8125 3.609375 -29.0625 C 3.171875 -29.3125 2.773438 -29.644531 2.421875 -30.0625 C 2.066406 -30.476562 1.769531 -30.957031 1.53125 -31.5 C 1.300781 -32.050781 1.1875 -32.640625 1.1875 -33.265625 C 1.1875 -34.179688 1.414062 -35.109375 1.875 -36.046875 C 2.34375 -36.992188 2.992188 -37.851562 3.828125 -38.625 C 4.660156 -39.40625 5.660156 -40.046875 6.828125 -40.546875 C 8.003906 -41.046875 9.304688 -41.296875 10.734375 -41.296875 C 11.734375 -41.296875 12.335938 -40.992188 12.546875 -40.390625 C 12.753906 -39.785156 12.859375 -38.894531 12.859375 -37.71875 C 12.859375 -36.84375 12.890625 -35.796875 12.953125 -34.578125 C 13.023438 -33.367188 13.113281 -32.039062 13.21875 -30.59375 C 13.320312 -29.15625 13.40625 -27.628906 13.46875 -26.015625 C 13.53125 -24.398438 13.5625 -22.757812 13.5625 -21.09375 C 13.5625 -20.59375 13.570312 -20.015625 13.59375 -19.359375 C 13.613281 -18.710938 13.625 -18.03125 13.625 -17.3125 C 13.625 -16.601562 13.632812 -15.882812 13.65625 -15.15625 C 13.675781 -14.425781 13.6875 -13.75 13.6875 -13.125 C 13.6875 -11.445312 13.601562 -9.8125 13.4375 -8.21875 C 13.269531 -6.632812 12.910156 -5.234375 12.359375 -4.015625 C 11.816406 -2.804688 11.039062 -1.820312 10.03125 -1.0625 C 9.03125 -0.3125 7.675781 0.0625 5.96875 0.0625 C 5.289062 0.0625 4.691406 -0.0507812 4.171875 -0.28125 C 3.648438 -0.507812 3.203125 -0.789062 2.828125 -1.125 C 2.453125 -1.457031 2.164062 -1.8125 1.96875 -2.1875 C 1.78125 -2.570312 1.6875 -2.910156 1.6875 -3.203125 C 1.6875 -3.703125 1.859375 -3.953125 2.203125 -3.953125 C 2.492188 -3.953125 2.753906 -3.816406 2.984375 -3.546875 C 3.210938 -3.273438 3.453125 -2.960938 3.703125 -2.609375 C 3.953125 -2.253906 4.253906 -1.9375 4.609375 -1.65625 C 4.960938 -1.382812 5.414062 -1.25 5.96875 -1.25 Z M 5.96875 -1.25 "/></g></g></g><g clip-path="url(#c3429a70b6)"><path fill="#f8c6fa" d="M 3.488281 25.226562 C 2.96875 25.695312 2.96875 26.453125 3.488281 26.925781 L 3.691406 27.105469 L 3.488281 27.285156 C 2.96875 27.757812 2.96875 28.515625 3.488281 28.984375 C 3.765625 29.234375 4.136719 29.351562 4.496094 29.335938 C 4.921875 29.316406 5.300781 29.09375 5.5 28.757812 C 5.738281 28.359375 6.339844 27.539062 7.46875 27.105469 C 6.339844 26.671875 5.738281 25.851562 5.5 25.453125 C 5.300781 25.117188 4.921875 24.894531 4.496094 24.875 C 4.132812 24.859375 3.765625 24.976562 3.488281 25.226562 Z M 3.488281 25.226562 " fill-opacity="1" fill-rule="nonzero"/></g><g clip-path="url(#c3de0ae735)"><path fill="#f8c6fa" d="M 64.414062 29.101562 C 64.9375 28.632812 64.9375 27.875 64.414062 27.40625 L 64.214844 27.222656 L 64.414062 27.042969 C 64.9375 26.574219 64.9375 25.8125 64.414062 25.34375 C 64.136719 25.09375 63.769531 24.976562 63.40625 24.992188 C 62.984375 25.011719 62.605469 25.234375 62.40625 25.570312 C 62.167969 25.96875 61.566406 26.789062 60.4375 27.222656 C 61.566406 27.65625 62.167969 28.476562 62.40625 28.875 C 62.605469 29.210938 62.984375 29.433594 63.40625 29.453125 C 63.769531 29.46875 64.140625 29.351562 64.414062 29.101562 Z M 64.414062 29.101562 " fill-opacity="1" fill-rule="nonzero"/></g><g fill="#ffffff" fill-opacity="1"><g transform="translate(0.880519, 34.65133)"><g><path d="M 0.628906 4.871094 C 0.628906 4.871094 0.730469 4.492188 1.15625 4.21875 L 4.019531 2.628906 L 4.421875 2.40625 L 4.285156 1.371094 L 3.84375 1.257812 L 0.664062 0.445312 C 0.191406 0.289062 -0.0078125 -0.046875 -0.0078125 -0.046875 L 0.0351562 0.285156 L 0.03125 0.285156 L 0.09375 0.765625 L 0.0976562 0.761719 L 0.175781 1.359375 C 0.175781 1.359375 0.445312 0.859375 0.664062 0.910156 L 1.613281 1.152344 L 1.890625 3.300781 L 1.039062 3.769531 C 0.839844 3.882812 0.445312 3.457031 0.445312 3.457031 L 0.523438 4.058594 L 0.515625 4.0625 L 0.578125 4.542969 L 0.585938 4.539062 Z M 2.054688 1.265625 L 3.90625 1.738281 L 3.957031 2.152344 L 2.289062 3.082031 Z M 2.054688 1.265625 "/></g></g></g><g fill="#ffffff" fill-opacity="1"><g transform="translate(1.741027, 40.520843)"><g><path d="M 2.738281 1.699219 L 2.46875 1.753906 L 2.816406 3.460938 L 2.789062 3.46875 C 2.105469 3.683594 1.359375 3.105469 1.042969 2.109375 C 0.75 1.179688 1.269531 0.261719 2.136719 -0.0117188 C 2.96875 -0.277344 3.949219 0.167969 4.242188 1.097656 C 4.5625 2.121094 4.285156 2.75 3.730469 2.925781 L 3.824219 3.417969 C 4.707031 3.136719 5 2.09375 4.652344 0.984375 C 4.304688 -0.121094 3.105469 -0.785156 2.003906 -0.4375 C 0.890625 -0.0859375 0.292969 1.144531 0.640625 2.25 C 0.980469 3.324219 1.882812 4.046875 2.828125 3.75 L 3.140625 3.652344 Z M 2.738281 1.699219 "/></g></g></g><g fill="#ffffff" fill-opacity="1"><g transform="translate(3.562443, 45.917025)"><g><path d="M 1.792969 2.601562 L 0.976562 0.988281 C 0.875 0.785156 0.953125 0.542969 1.15625 0.441406 L 2.074219 -0.0234375 L 2.6875 1.191406 C 2.792969 1.398438 2.621094 1.707031 2.621094 1.707031 L 3.511719 1.257812 C 3.511719 1.257812 3.167969 1.195312 3.066406 0.996094 L 2.453125 -0.214844 L 3.300781 -0.644531 C 3.507812 -0.75 3.753906 -0.664062 3.859375 -0.460938 L 4.605469 1.015625 C 4.699219 1.203125 4.308594 1.90625 4.308594 1.90625 L 5.171875 1.195312 L 3.71875 -1.679688 C 3.71875 -1.679688 3.664062 -1.332031 3.386719 -1.191406 L 0.683594 0.175781 C 0.363281 0.339844 0.078125 0.164062 0.078125 0.164062 L 1.59375 3.160156 L 2.78125 2.835938 C 2.78125 2.835938 1.886719 2.785156 1.792969 2.601562 Z M 1.792969 2.601562 "/></g></g></g><g fill="#ffffff" fill-opacity="1"><g transform="translate(5.871583, 50.362094)"><g><path d="M 5.375 0.4375 C 5.375 0.4375 5.421875 0.761719 5.128906 0.980469 L 2.601562 2.828125 L 2.460938 2.636719 L 4.15625 -1.222656 L 3.5625 -2.039062 L 0.691406 0.0664062 C 0.402344 0.273438 0.0976562 0.144531 0.0976562 0.144531 L 0.703125 0.96875 C 0.703125 0.96875 0.679688 0.628906 0.957031 0.425781 L 3.484375 -1.421875 L 3.664062 -1.175781 L 1.96875 2.6875 L 2.519531 3.4375 L 5.390625 1.335938 C 5.6875 1.121094 5.980469 1.265625 5.980469 1.265625 Z M 5.375 0.4375 "/></g></g></g><g fill="#ffffff" fill-opacity="1"><g transform="translate(9.36266, 54.961333)"><g><path d="M 1.921875 1.34375 C 1.21875 0.667969 1.292969 -0.4375 1.867188 -1.035156 C 2.4375 -1.628906 3.484375 -1.8125 4.246094 -1.082031 C 4.953125 -0.402344 5.078125 0.425781 4.734375 0.785156 L 5.011719 1.144531 C 5.652344 0.476562 5.332031 -0.628906 4.554688 -1.375 C 3.710938 -2.183594 2.351562 -2.179688 1.546875 -1.34375 C 0.746094 -0.507812 0.796875 0.855469 1.640625 1.660156 C 2.828125 2.804688 4.089844 2.046875 4.089844 2.046875 L 4.042969 1.828125 C 4.042969 1.828125 2.964844 2.34375 1.921875 1.34375 Z M 1.921875 1.34375 "/></g></g></g><g fill="#ffffff" fill-opacity="1"><g transform="translate(13.475394, 58.692543)"><g><path d="M 2.859375 -2.300781 C 3.09375 -2.613281 3.402344 -2.546875 3.402344 -2.546875 L 2.589844 -3.160156 C 2.589844 -3.160156 2.710938 -2.851562 2.5 -2.570312 L 0.675781 -0.140625 C 0.464844 0.136719 0.136719 0.101562 0.136719 0.101562 L 0.949219 0.714844 C 0.949219 0.714844 0.824219 0.40625 1.035156 0.128906 Z M 2.859375 -2.300781 "/></g></g></g><g fill="#ffffff" fill-opacity="1"><g transform="translate(15.318911, 60.139021)"><g><path d="M 4.261719 2.441406 C 4.261719 2.441406 4.023438 2.128906 4.0625 1.625 L 4.523438 -1.617188 L 4.585938 -2.070312 L 3.679688 -2.589844 L 3.324219 -2.304688 L 0.753906 -0.261719 C 0.34375 0.0234375 -0.0390625 -0.0234375 -0.0390625 -0.0234375 L 0.246094 0.140625 L 0.246094 0.148438 L 0.664062 0.386719 L 0.667969 0.382812 L 1.1875 0.679688 C 1.1875 0.679688 0.953125 0.164062 1.125 0.0195312 L 1.890625 -0.589844 L 3.773438 0.488281 L 3.632812 1.449219 C 3.605469 1.675781 3.027344 1.734375 3.027344 1.734375 L 3.554688 2.035156 L 3.550781 2.039062 L 3.96875 2.28125 L 3.972656 2.273438 Z M 2.25 -0.875 L 3.742188 -2.0625 L 4.105469 -1.855469 L 3.839844 0.0351562 Z M 2.25 -0.875 "/></g></g></g><g fill="#ffffff" fill-opacity="1"><g transform="translate(20.475822, 62.900201)"><g/></g></g><g fill="#ffffff" fill-opacity="1"><g transform="translate(22.994077, 63.959236)"><g><path d="M 3.125 -3.375 L 1.242188 -3.886719 C 1.242188 -3.886719 1.46875 -3.644531 1.378906 -3.3125 L 0.585938 -0.382812 C 0.492188 -0.0351562 0.171875 0.0546875 0.171875 0.0546875 L 2.125 0.582031 C 3.257812 0.886719 4.367188 0.289062 4.710938 -0.976562 C 4.996094 -2.023438 4.179688 -3.089844 3.125 -3.375 Z M 2.238281 0.164062 L 1.394531 -0.0625 C 1.175781 -0.121094 1.042969 -0.351562 1.101562 -0.570312 L 1.726562 -2.867188 C 1.789062 -3.097656 2.023438 -3.234375 2.253906 -3.171875 L 3.082031 -2.949219 C 3.988281 -2.703125 4.476562 -1.800781 4.25 -0.964844 C 4.03125 -0.152344 3.144531 0.410156 2.238281 0.164062 Z M 2.238281 0.164062 "/></g></g></g><g fill="#ffffff" fill-opacity="1"><g transform="translate(28.345475, 65.301304)"><g><path d="M 3.160156 -0.0976562 L 1.359375 -0.285156 C 1.136719 -0.308594 0.972656 -0.507812 0.996094 -0.734375 L 1.105469 -1.753906 L 2.457031 -1.613281 C 2.6875 -1.589844 2.855469 -1.277344 2.855469 -1.277344 L 2.957031 -2.269531 C 2.957031 -2.269531 2.722656 -2.011719 2.5 -2.035156 L 1.148438 -2.179688 L 1.246094 -3.125 C 1.273438 -3.355469 1.476562 -3.515625 1.703125 -3.492188 L 3.351562 -3.320312 C 3.558594 -3.296875 3.9375 -2.589844 3.9375 -2.589844 L 3.804688 -3.699219 L 0.605469 -4.035156 C 0.605469 -4.035156 0.867188 -3.800781 0.835938 -3.488281 L 0.519531 -0.480469 C 0.480469 -0.121094 0.179688 0.0234375 0.179688 0.0234375 L 3.519531 0.375 L 3.890625 -0.800781 C 3.890625 -0.800781 3.363281 -0.0742188 3.160156 -0.0976562 Z M 3.160156 -0.0976562 "/></g></g></g><g fill="#ffffff" fill-opacity="1"><g transform="translate(33.25475, 65.694894)"><g/></g></g><g fill="#ffffff" fill-opacity="1"><g transform="translate(36.046315, 65.761187)"><g><path d="M 5.113281 -0.855469 L 6.125 -1.027344 C 6.125 -1.027344 5.816406 -1.117188 5.75 -1.496094 L 5.160156 -5.003906 L 4.128906 -4.832031 L 3.300781 -0.988281 L 2.851562 -0.914062 L 0.804688 -4.269531 L -0.222656 -4.097656 L 0.367188 -0.589844 C 0.421875 -0.273438 0.171875 -0.0234375 0.171875 -0.0234375 L 1.179688 -0.191406 C 1.179688 -0.191406 0.867188 -0.324219 0.8125 -0.664062 L 0.289062 -3.75 L 0.578125 -3.800781 L 2.625 -0.4375 L 3.667969 -0.617188 L 4.5 -4.460938 L 4.785156 -4.511719 L 5.308594 -1.421875 C 5.367188 -1.058594 5.113281 -0.855469 5.113281 -0.855469 Z M 5.113281 -0.855469 "/></g></g></g><g fill="#ffffff" fill-opacity="1"><g transform="translate(43.402884, 64.325356)"><g><path d="M 4.574219 -1.785156 C 4.574219 -1.785156 4.183594 -1.796875 3.816406 -2.140625 L 1.578125 -4.535156 L 1.265625 -4.871094 L 0.292969 -4.492188 L 0.292969 -4.03125 L 0.269531 -0.75 C 0.234375 -0.253906 -0.0429688 0.015625 -0.0429688 0.015625 L 0.265625 -0.105469 L 0.269531 -0.0976562 L 0.71875 -0.273438 L 0.71875 -0.28125 L 1.277344 -0.5 C 1.277344 -0.5 0.726562 -0.640625 0.722656 -0.863281 L 0.726562 -1.84375 L 2.746094 -2.632812 L 3.40625 -1.917969 C 3.566406 -1.753906 3.25 -1.269531 3.25 -1.269531 L 3.8125 -1.488281 L 3.816406 -1.484375 L 4.265625 -1.660156 L 4.265625 -1.664062 Z M 0.730469 -2.300781 L 0.742188 -4.207031 L 1.132812 -4.363281 L 2.4375 -2.964844 Z M 0.730469 -2.300781 "/></g></g></g><g fill="#ffffff" fill-opacity="1"><g transform="translate(48.885195, 62.069658)"><g><path d="M 2.625 -2.515625 L 1.566406 -2.921875 C 2.101562 -3.261719 2.289062 -3.9375 1.910156 -4.5625 C 1.570312 -5.117188 0.84375 -5.289062 0.289062 -4.949219 L 0.285156 -4.953125 L -1.980469 -3.574219 C -1.980469 -3.574219 -1.640625 -3.5625 -1.4375 -3.230469 L 0.117188 -0.679688 C 0.300781 -0.382812 0.144531 -0.0898438 0.144531 -0.0898438 L 1.015625 -0.621094 C 1.015625 -0.621094 0.683594 -0.613281 0.5 -0.914062 L -0.101562 -1.898438 L 1.109375 -2.636719 L 2.371094 -2.15625 C 2.828125 -1.984375 3.421875 -2.085938 3.832031 -2.339844 L 3.71875 -2.527344 C 3.40625 -2.335938 2.964844 -2.382812 2.625 -2.515625 Z M -0.917969 -3.238281 C -1.03125 -3.429688 -0.96875 -3.683594 -0.777344 -3.804688 L 0.417969 -4.53125 C 0.871094 -4.808594 1.417969 -4.664062 1.617188 -4.136719 C 1.738281 -3.800781 1.519531 -3.386719 1.175781 -3.175781 L -0.320312 -2.261719 Z M -0.917969 -3.238281 "/></g></g></g><g fill="#ffffff" fill-opacity="1"><g transform="translate(53.605323, 59.079822)"><g><path d="M 2.015625 -2.785156 L 0.128906 -3.160156 L 0.246094 -4.683594 C 0.253906 -5.332031 0.5625 -5.894531 0.5625 -5.894531 L -0.726562 -4.773438 C -0.726562 -4.773438 -0.179688 -4.914062 -0.183594 -4.589844 L -0.28125 -3.285156 L -1.066406 -2.601562 L -1.652344 -3.277344 C -1.894531 -3.554688 -1.78125 -3.859375 -1.78125 -3.859375 L -2.550781 -3.191406 C -2.550781 -3.191406 -2.257812 -3.289062 -1.992188 -2.980469 L 0 -0.6875 C 0.242188 -0.40625 0.125 -0.105469 0.125 -0.105469 L 0.894531 -0.777344 C 0.894531 -0.777344 0.59375 -0.683594 0.339844 -0.980469 L -0.785156 -2.277344 L -0.191406 -2.792969 L 1.828125 -2.386719 C 2.304688 -2.292969 2.871094 -2.492188 3.238281 -2.808594 L 3.09375 -2.976562 C 2.816406 -2.734375 2.378906 -2.710938 2.015625 -2.785156 Z M 2.015625 -2.785156 "/></g></g></g><g fill="#ffffff" fill-opacity="1"><g transform="translate(57.59201, 55.493752)"><g><path d="M 1.6875 -2.671875 L 0.523438 -1.289062 C 0.378906 -1.113281 0.125 -1.089844 -0.0507812 -1.238281 L -0.835938 -1.898438 L 0.0390625 -2.9375 C 0.1875 -3.117188 0.539062 -3.082031 0.539062 -3.082031 L -0.226562 -3.722656 C -0.226562 -3.722656 -0.144531 -3.382812 -0.289062 -3.210938 L -1.160156 -2.171875 L -1.890625 -2.78125 C -2.070312 -2.933594 -2.085938 -3.191406 -1.941406 -3.367188 L -0.875 -4.632812 C -0.742188 -4.796875 0.0585938 -4.710938 0.0585938 -4.710938 L -0.933594 -5.226562 L -3.003906 -2.761719 C -3.003906 -2.761719 -2.664062 -2.847656 -2.425781 -2.644531 L -0.105469 -0.699219 C 0.171875 -0.464844 0.121094 -0.132812 0.121094 -0.132812 L 2.28125 -2.707031 L 1.515625 -3.671875 C 1.515625 -3.671875 1.820312 -2.828125 1.6875 -2.671875 Z M 1.6875 -2.671875 "/></g></g></g><g fill="#ffffff" fill-opacity="1"><g transform="translate(60.757534, 51.62369)"><g><path d="M -1.34375 -5.65625 L -1.363281 -5.667969 L -3.375 -2.3125 L -3.355469 -2.300781 L -2.527344 -1.59375 C -2.527344 -1.59375 -2.871094 -2.308594 -2.765625 -2.492188 L -2.261719 -3.332031 C -2.089844 -3.433594 -1.96875 -3.488281 -1.792969 -3.382812 L 0.574219 -1.96875 C 0.886719 -1.777344 0.871094 -1.457031 0.871094 -1.457031 L 1.398438 -2.335938 C 1.398438 -2.335938 1.105469 -2.171875 0.804688 -2.351562 L -1.5625 -3.769531 C -1.738281 -3.875 -1.746094 -4.007812 -1.738281 -4.207031 L -1.234375 -5.046875 C -1.125 -5.226562 -0.328125 -5.265625 -0.328125 -5.265625 Z M -1.34375 -5.65625 "/></g></g></g><g fill="#ffffff" fill-opacity="1"><g transform="translate(63.397413, 46.929181)"><g><path d="M -2.875 -2.28125 C -3.230469 -2.441406 -3.238281 -2.757812 -3.238281 -2.757812 L -3.65625 -1.824219 C -3.65625 -1.824219 -3.378906 -2.015625 -3.058594 -1.871094 L -0.289062 -0.628906 C 0.03125 -0.484375 0.0703125 -0.15625 0.0703125 -0.15625 L 0.488281 -1.085938 C 0.488281 -1.085938 0.214844 -0.894531 -0.101562 -1.039062 Z M -2.875 -2.28125 "/></g></g></g><g fill="#ffffff" fill-opacity="1"><g transform="translate(64.393031, 44.812353)"><g><path d="M -2.851562 -4.574219 C -2.851562 -4.574219 -2.621094 -4.808594 -2.269531 -4.699219 L 0.722656 -3.773438 L 0.652344 -3.546875 L -3.460938 -2.609375 L -3.757812 -1.644531 L -0.359375 -0.59375 C -0.0195312 -0.488281 0.0585938 -0.164062 0.0585938 -0.164062 L 0.359375 -1.140625 C 0.359375 -1.140625 0.101562 -0.921875 -0.226562 -1.023438 L -3.21875 -1.945312 L -3.128906 -2.242188 L 0.984375 -3.179688 L 1.257812 -4.074219 L -2.140625 -5.125 C -2.492188 -5.230469 -2.550781 -5.554688 -2.550781 -5.554688 Z M -2.851562 -4.574219 "/></g></g></g><g fill="#ffffff" fill-opacity="1"><g transform="translate(66.007055, 39.265933)"><g><path d="M -1.777344 -2.6875 L -1.511719 -2.621094 L -1.117188 -4.320312 L -1.085938 -4.316406 C -0.375 -4.226562 0.0625 -3.390625 -0.0703125 -2.355469 C -0.191406 -1.386719 -1.042969 -0.765625 -1.945312 -0.878906 C -2.816406 -0.988281 -3.519531 -1.800781 -3.398438 -2.765625 C -3.261719 -3.832031 -2.746094 -4.289062 -2.167969 -4.214844 L -2.050781 -4.699219 C -2.96875 -4.816406 -3.671875 -3.988281 -3.816406 -2.835938 C -3.960938 -1.683594 -3.148438 -0.582031 -2.003906 -0.4375 C -0.84375 -0.292969 0.210938 -1.160156 0.355469 -2.3125 C 0.496094 -3.429688 -0.0234375 -4.464844 -1.003906 -4.585938 L -1.328125 -4.628906 Z M -1.777344 -2.6875 "/></g></g></g></svg>