<svg xmlns="http://www.w3.org/2000/svg" xmlns:xlink="http://www.w3.org/1999/xlink" width="80" zoomAndPan="magnify" viewBox="0 0 60 60" height="80" preserveAspectRatio="xMidYMid meet" version="1.0"><defs><g/><clipPath id="fe8703ceeb"><path d="M 3.746094 24.292969 L 7.496094 24.292969 L 7.496094 28.042969 L 3.746094 28.042969 Z M 3.746094 24.292969 " clip-rule="nonzero"/></clipPath><clipPath id="1cca15ec87"><path d="M 52.519531 24.292969 L 56.246094 24.292969 L 56.246094 27.902344 L 52.519531 27.902344 Z M 52.519531 24.292969 " clip-rule="nonzero"/></clipPath></defs><rect x="-6" width="72" fill="#ffffff" y="-6" height="72" fill-opacity="1"/><rect x="-6" width="72" fill="#ffffff" y="-6" height="72" fill-opacity="1"/><rect x="-6" width="72" fill="#ffffff" y="-6" height="72" fill-opacity="1"/><path fill="#f1abaf" d="M 30 0 C 13.429688 0 0 13.429688 0 30 C 0 46.570312 13.429688 60 30 60 C 46.570312 60 60 46.570312 60 30 C 60 13.429688 46.570312 0 30 0 " fill-opacity="1" fill-rule="nonzero"/><g fill="#ffffff" fill-opacity="1"><g transform="translate(11.907567, 19.164474)"><g><path d="M 0.617188 -0.996094 L -2.707031 -3.0625 L -3.175781 -2.304688 L 0.148438 -0.238281 Z M 0.617188 -0.996094 "/></g></g></g><g fill="#ffffff" fill-opacity="1"><g transform="translate(12.700215, 17.757662)"><g><path d="M 1.625 -1.828125 C 1.878906 -2.136719 2.101562 -2.511719 2.289062 -2.941406 L 1.78125 -3.261719 C 1.769531 -2.902344 1.886719 -2.328125 1.695312 -2.09375 C 1.101562 -1.375 -0.0195312 -1.429688 -0.800781 -2.070312 C -1.761719 -2.867188 -1.949219 -3.765625 -1.304688 -4.542969 C -1.113281 -4.773438 -0.613281 -4.765625 -0.144531 -4.878906 L -0.550781 -5.289062 C -0.949219 -5.042969 -1.289062 -4.753906 -1.550781 -4.4375 C -2.339844 -3.480469 -2.433594 -2.265625 -1.367188 -1.382812 C -0.347656 -0.542969 0.789062 -0.816406 1.625 -1.828125 Z M 1.625 -1.828125 "/></g></g></g><g fill="#ffffff" fill-opacity="1"><g transform="translate(15.168527, 14.73628)"><g><path d="M 1.753906 -1.308594 C 2.804688 -2.164062 2.730469 -3.265625 2.019531 -4.140625 C 1.214844 -5.128906 0.222656 -5.339844 -0.828125 -4.488281 C -1.878906 -3.632812 -1.875 -2.617188 -1.074219 -1.628906 C -0.363281 -0.753906 0.703125 -0.453125 1.753906 -1.308594 Z M 1.691406 -1.382812 C 1.074219 -0.878906 0.277344 -1.382812 -0.378906 -2.191406 C -1.023438 -2.984375 -1.453125 -3.855469 -0.769531 -4.414062 C -0.121094 -4.941406 0.683594 -4.371094 1.324219 -3.578125 C 1.984375 -2.769531 2.34375 -1.910156 1.691406 -1.382812 Z M 1.691406 -1.382812 "/></g></g></g><g fill="#ffffff" fill-opacity="1"><g transform="translate(18.613833, 11.971619)"><g><path d="M 0.582031 -0.304688 C 0.253906 -0.644531 0.0273438 -1.027344 -0.164062 -1.394531 L -1.121094 -3.214844 L 2.550781 -1.335938 L 3.195312 -1.671875 L 1.953125 -4.050781 C 1.78125 -4.382812 1.589844 -4.835938 1.515625 -5.210938 L 1.160156 -5.027344 C 1.421875 -4.75 1.6875 -4.339844 1.863281 -4.003906 L 2.929688 -1.96875 L -0.921875 -3.9375 L -1.453125 -3.65625 L -0.246094 -1.351562 C -0.0273438 -0.929688 0.132812 -0.578125 0.222656 -0.117188 Z M 0.582031 -0.304688 "/></g></g></g><g fill="#ffffff" fill-opacity="1"><g transform="translate(22.277022, 10.161154)"><g><path d="M 1.101562 -0.398438 L -0.226562 -4.082031 L -1.066406 -3.777344 L 0.261719 -0.09375 Z M 1.101562 -0.398438 "/></g></g></g><g fill="#ffffff" fill-opacity="1"><g transform="translate(23.770527, 9.548027)"><g><path d="M 2.40625 -0.429688 C 2.800781 -0.511719 3.203125 -0.667969 3.621094 -0.890625 L 3.417969 -1.457031 C 3.183594 -1.183594 2.921875 -0.660156 2.628906 -0.59375 C 1.71875 -0.398438 0.867188 -1.132812 0.65625 -2.121094 C 0.390625 -3.34375 0.800781 -4.160156 1.789062 -4.375 C 2.082031 -4.4375 2.472656 -4.121094 2.910156 -3.917969 L 2.84375 -4.492188 C 2.378906 -4.546875 1.933594 -4.53125 1.527344 -4.445312 C 0.320312 -4.183594 -0.507812 -3.285156 -0.21875 -1.933594 C 0.0625 -0.640625 1.125 -0.152344 2.40625 -0.429688 Z M 2.40625 -0.429688 "/></g></g></g><g fill="#ffffff" fill-opacity="1"><g transform="translate(27.706115, 8.795114)"><g/></g></g><g fill="#ffffff" fill-opacity="1"><g transform="translate(29.143915, 8.599377)"><g><path d="M 1.808594 0.0898438 C 2.746094 0.136719 3.765625 -0.394531 3.839844 -1.839844 C 3.902344 -3.117188 3.21875 -3.757812 2.042969 -3.816406 L 0.472656 -3.894531 L 0.277344 0.015625 Z M 1.359375 -3.742188 L 1.804688 -3.71875 C 2.523438 -3.6875 3.015625 -3.214844 2.949219 -1.886719 C 2.871094 -0.347656 2.277344 0.0078125 1.480469 -0.03125 L 1.175781 -0.046875 Z M 1.359375 -3.742188 "/></g></g></g><g fill="#ffffff" fill-opacity="1"><g transform="translate(33.219226, 8.897562)"><g><path d="M 1.152344 0.214844 L 1.875 -3.632812 L 0.996094 -3.796875 L 0.273438 0.0507812 Z M 1.152344 0.214844 "/></g></g></g><g fill="#ffffff" fill-opacity="1"><g transform="translate(34.805673, 9.099955)"><g><path d="M 2.390625 0.90625 C 2.847656 1.066406 3.378906 1.136719 3.945312 1.113281 L 4.535156 -0.605469 L 3.691406 -0.898438 L 3.066406 0.929688 C 2.875 0.933594 2.699219 0.902344 2.539062 0.847656 C 1.710938 0.5625 1.246094 -0.285156 1.6875 -1.5625 C 2.070312 -2.679688 2.8125 -3.148438 3.574219 -2.890625 C 3.996094 -2.746094 4.429688 -2.359375 4.8125 -1.722656 L 5.019531 -2.238281 C 4.617188 -2.554688 4.183594 -2.785156 3.753906 -2.933594 C 2.484375 -3.371094 1.253906 -3.050781 0.839844 -1.851562 C 0.402344 -0.574219 1.132812 0.476562 2.390625 0.90625 Z M 2.390625 0.90625 "/></g></g></g><g fill="#ffffff" fill-opacity="1"><g transform="translate(39.001402, 10.660137)"><g><path d="M 1.042969 0.535156 L 2.832031 -2.945312 L 2.039062 -3.355469 L 0.246094 0.128906 Z M 1.042969 0.535156 "/></g></g></g><g fill="#ffffff" fill-opacity="1"><g transform="translate(40.469009, 11.347795)"><g><path d="M 1.882812 1.300781 L 4.054688 -1.84375 C 4.5625 -1.488281 4.722656 -1.183594 4.867188 -0.714844 L 5.1875 -1.175781 L 2.296875 -3.171875 L 1.976562 -2.714844 C 2.46875 -2.738281 2.828125 -2.6875 3.320312 -2.347656 L 1.148438 0.792969 Z M 1.882812 1.300781 "/></g></g></g><g fill="#ffffff" fill-opacity="1"><g transform="translate(43.539061, 13.447646)"><g><path d="M 0.683594 0.695312 L 2.382812 -0.015625 L 3.550781 1.171875 L 3.421875 1.449219 C 3.175781 2 2.796875 2.417969 2.597656 2.648438 L 2.871094 2.925781 L 4.570312 -0.933594 L 3.945312 -1.570312 L 0.0585938 0.0585938 Z M 4.449219 -0.882812 L 3.589844 1.078125 L 2.476562 -0.0546875 Z M 4.449219 -0.882812 "/></g></g></g><g fill="#ffffff" fill-opacity="1"><g transform="translate(46.486544, 16.520502)"><g><path d="M 1.722656 2.542969 L 2.1875 2.230469 C 1.566406 1.929688 1.207031 1.613281 0.734375 0.917969 L 3.898438 -1.226562 L 3.398438 -1.964844 L 0.15625 0.230469 Z M 1.722656 2.542969 "/></g></g></g><g fill="#ffffff" fill-opacity="0.4"><g transform="translate(23.510613, 42.317711)"><g><path d="M 3.859375 -0.8125 C 4.484375 -0.8125 4.984375 -0.96875 5.359375 -1.28125 C 5.734375 -1.59375 6.03125 -2.003906 6.25 -2.515625 C 6.46875 -3.023438 6.613281 -3.613281 6.6875 -4.28125 C 6.769531 -4.945312 6.8125 -5.617188 6.8125 -6.296875 C 6.8125 -8.535156 6.738281 -10.71875 6.59375 -12.84375 C 6.445312 -14.96875 6.375 -17.085938 6.375 -19.203125 C 6.375 -20.097656 6.40625 -21.035156 6.46875 -22.015625 C 6.539062 -23.003906 6.65625 -23.960938 6.8125 -24.890625 C 5.269531 -24.671875 4.023438 -24.273438 3.078125 -23.703125 C 2.140625 -23.140625 1.671875 -22.359375 1.671875 -21.359375 C 1.671875 -20.972656 1.785156 -20.675781 2.015625 -20.46875 C 2.242188 -20.269531 2.484375 -20.097656 2.734375 -19.953125 C 2.992188 -19.804688 3.238281 -19.664062 3.46875 -19.53125 C 3.695312 -19.394531 3.8125 -19.21875 3.8125 -19 C 3.8125 -18.695312 3.597656 -18.546875 3.171875 -18.546875 C 2.898438 -18.546875 2.617188 -18.625 2.328125 -18.78125 C 2.046875 -18.945312 1.789062 -19.164062 1.5625 -19.4375 C 1.332031 -19.707031 1.140625 -20.019531 0.984375 -20.375 C 0.835938 -20.726562 0.765625 -21.109375 0.765625 -21.515625 C 0.765625 -22.109375 0.914062 -22.707031 1.21875 -23.3125 C 1.519531 -23.925781 1.9375 -24.484375 2.46875 -24.984375 C 3.007812 -25.484375 3.660156 -25.894531 4.421875 -26.21875 C 5.179688 -26.539062 6.019531 -26.703125 6.9375 -26.703125 C 7.59375 -26.703125 7.988281 -26.503906 8.125 -26.109375 C 8.257812 -25.722656 8.328125 -25.148438 8.328125 -24.390625 C 8.328125 -23.828125 8.34375 -23.148438 8.375 -22.359375 C 8.414062 -21.578125 8.46875 -20.71875 8.53125 -19.78125 C 8.601562 -18.851562 8.660156 -17.867188 8.703125 -16.828125 C 8.742188 -15.785156 8.765625 -14.722656 8.765625 -13.640625 C 8.765625 -13.316406 8.769531 -12.941406 8.78125 -12.515625 C 8.800781 -12.097656 8.8125 -11.660156 8.8125 -11.203125 C 8.8125 -10.742188 8.816406 -10.273438 8.828125 -9.796875 C 8.835938 -9.328125 8.84375 -8.890625 8.84375 -8.484375 C 8.84375 -7.398438 8.789062 -6.34375 8.6875 -5.3125 C 8.582031 -4.289062 8.351562 -3.382812 8 -2.59375 C 7.644531 -1.8125 7.140625 -1.175781 6.484375 -0.6875 C 5.835938 -0.195312 4.960938 0.046875 3.859375 0.046875 C 3.421875 0.046875 3.03125 -0.0234375 2.6875 -0.171875 C 2.351562 -0.328125 2.066406 -0.515625 1.828125 -0.734375 C 1.585938 -0.953125 1.40625 -1.179688 1.28125 -1.421875 C 1.15625 -1.660156 1.09375 -1.875 1.09375 -2.0625 C 1.09375 -2.394531 1.203125 -2.5625 1.421875 -2.5625 C 1.609375 -2.5625 1.773438 -2.472656 1.921875 -2.296875 C 2.078125 -2.117188 2.234375 -1.914062 2.390625 -1.6875 C 2.554688 -1.457031 2.753906 -1.253906 2.984375 -1.078125 C 3.210938 -0.898438 3.503906 -0.8125 3.859375 -0.8125 Z M 3.859375 -0.8125 "/></g></g></g><g fill="#ffffff" fill-opacity="1"><g transform="translate(23.008217, 41.815315)"><g><path d="M 3.859375 -0.8125 C 4.484375 -0.8125 4.984375 -0.96875 5.359375 -1.28125 C 5.734375 -1.59375 6.03125 -2.003906 6.25 -2.515625 C 6.46875 -3.023438 6.613281 -3.613281 6.6875 -4.28125 C 6.769531 -4.945312 6.8125 -5.617188 6.8125 -6.296875 C 6.8125 -8.535156 6.738281 -10.71875 6.59375 -12.84375 C 6.445312 -14.96875 6.375 -17.085938 6.375 -19.203125 C 6.375 -20.097656 6.40625 -21.035156 6.46875 -22.015625 C 6.539062 -23.003906 6.65625 -23.960938 6.8125 -24.890625 C 5.269531 -24.671875 4.023438 -24.273438 3.078125 -23.703125 C 2.140625 -23.140625 1.671875 -22.359375 1.671875 -21.359375 C 1.671875 -20.972656 1.785156 -20.675781 2.015625 -20.46875 C 2.242188 -20.269531 2.484375 -20.097656 2.734375 -19.953125 C 2.992188 -19.804688 3.238281 -19.664062 3.46875 -19.53125 C 3.695312 -19.394531 3.8125 -19.21875 3.8125 -19 C 3.8125 -18.695312 3.597656 -18.546875 3.171875 -18.546875 C 2.898438 -18.546875 2.617188 -18.625 2.328125 -18.78125 C 2.046875 -18.945312 1.789062 -19.164062 1.5625 -19.4375 C 1.332031 -19.707031 1.140625 -20.019531 0.984375 -20.375 C 0.835938 -20.726562 0.765625 -21.109375 0.765625 -21.515625 C 0.765625 -22.109375 0.914062 -22.707031 1.21875 -23.3125 C 1.519531 -23.925781 1.9375 -24.484375 2.46875 -24.984375 C 3.007812 -25.484375 3.660156 -25.894531 4.421875 -26.21875 C 5.179688 -26.539062 6.019531 -26.703125 6.9375 -26.703125 C 7.59375 -26.703125 7.988281 -26.503906 8.125 -26.109375 C 8.257812 -25.722656 8.328125 -25.148438 8.328125 -24.390625 C 8.328125 -23.828125 8.34375 -23.148438 8.375 -22.359375 C 8.414062 -21.578125 8.46875 -20.71875 8.53125 -19.78125 C 8.601562 -18.851562 8.660156 -17.867188 8.703125 -16.828125 C 8.742188 -15.785156 8.765625 -14.722656 8.765625 -13.640625 C 8.765625 -13.316406 8.769531 -12.941406 8.78125 -12.515625 C 8.800781 -12.097656 8.8125 -11.660156 8.8125 -11.203125 C 8.8125 -10.742188 8.816406 -10.273438 8.828125 -9.796875 C 8.835938 -9.328125 8.84375 -8.890625 8.84375 -8.484375 C 8.84375 -7.398438 8.789062 -6.34375 8.6875 -5.3125 C 8.582031 -4.289062 8.351562 -3.382812 8 -2.59375 C 7.644531 -1.8125 7.140625 -1.175781 6.484375 -0.6875 C 5.835938 -0.195312 4.960938 0.046875 3.859375 0.046875 C 3.421875 0.046875 3.03125 -0.0234375 2.6875 -0.171875 C 2.351562 -0.328125 2.066406 -0.515625 1.828125 -0.734375 C 1.585938 -0.953125 1.40625 -1.179688 1.28125 -1.421875 C 1.15625 -1.660156 1.09375 -1.875 1.09375 -2.0625 C 1.09375 -2.394531 1.203125 -2.5625 1.421875 -2.5625 C 1.609375 -2.5625 1.773438 -2.472656 1.921875 -2.296875 C 2.078125 -2.117188 2.234375 -1.914062 2.390625 -1.6875 C 2.554688 -1.457031 2.753906 -1.253906 2.984375 -1.078125 C 3.210938 -0.898438 3.503906 -0.8125 3.859375 -0.8125 Z M 3.859375 -0.8125 "/></g></g></g><g clip-path="url(#fe8703ceeb)"><path fill="#f8c6fa" d="M 4.183594 24.601562 C 3.75 24.992188 3.75 25.625 4.183594 26.019531 L 4.351562 26.167969 L 4.183594 26.320312 C 3.75 26.710938 3.75 27.347656 4.183594 27.738281 C 4.414062 27.945312 4.722656 28.042969 5.023438 28.03125 C 5.375 28.015625 5.691406 27.828125 5.855469 27.546875 C 6.054688 27.214844 6.554688 26.53125 7.492188 26.167969 C 6.554688 25.808594 6.054688 25.121094 5.855469 24.789062 C 5.691406 24.511719 5.375 24.324219 5.023438 24.308594 C 4.722656 24.292969 4.414062 24.390625 4.183594 24.601562 Z M 4.183594 24.601562 " fill-opacity="1" fill-rule="nonzero"/></g><g clip-path="url(#1cca15ec87)"><path fill="#f8c6fa" d="M 55.808594 27.597656 C 56.242188 27.207031 56.242188 26.574219 55.808594 26.179688 L 55.640625 26.03125 L 55.808594 25.878906 C 56.242188 25.488281 56.242188 24.851562 55.808594 24.460938 C 55.578125 24.253906 55.269531 24.15625 54.96875 24.167969 C 54.617188 24.183594 54.300781 24.371094 54.136719 24.648438 C 53.9375 24.984375 53.4375 25.667969 52.496094 26.03125 C 53.4375 26.390625 53.9375 27.078125 54.136719 27.410156 C 54.300781 27.6875 54.617188 27.875 54.96875 27.890625 C 55.269531 27.90625 55.578125 27.808594 55.808594 27.597656 Z M 55.808594 27.597656 " fill-opacity="1" fill-rule="nonzero"/></g><g fill="#ffffff" fill-opacity="1"><g transform="translate(3.248185, 31.259846)"><g><path d="M 0.511719 3.996094 C 0.511719 3.996094 0.597656 3.6875 0.945312 3.464844 L 3.296875 2.160156 L 3.625 1.976562 L 3.515625 1.125 L 3.152344 1.035156 L 0.542969 0.363281 C 0.15625 0.234375 -0.00390625 -0.0390625 -0.00390625 -0.0390625 L 0.03125 0.234375 L 0.0234375 0.234375 L 0.0742188 0.628906 L 0.0820312 0.625 L 0.144531 1.117188 C 0.144531 1.117188 0.367188 0.707031 0.542969 0.746094 L 1.320312 0.945312 L 1.546875 2.710938 L 0.851562 3.09375 C 0.6875 3.1875 0.363281 2.839844 0.363281 2.839844 L 0.425781 3.332031 L 0.421875 3.332031 L 0.472656 3.726562 L 0.476562 3.726562 Z M 1.6875 1.039062 L 3.203125 1.425781 L 3.246094 1.769531 L 1.878906 2.527344 Z M 1.6875 1.039062 "/></g></g></g><g fill="#ffffff" fill-opacity="1"><g transform="translate(3.958716, 36.113253)"><g><path d="M 2.246094 1.394531 L 2.023438 1.441406 L 2.308594 2.839844 L 2.285156 2.847656 C 1.722656 3.023438 1.113281 2.550781 0.855469 1.730469 C 0.617188 0.96875 1.039062 0.214844 1.753906 -0.0117188 C 2.4375 -0.226562 3.238281 0.140625 3.480469 0.902344 C 3.742188 1.742188 3.515625 2.257812 3.058594 2.402344 L 3.136719 2.804688 C 3.859375 2.578125 4.101562 1.71875 3.816406 0.808594 C 3.53125 -0.0976562 2.546875 -0.640625 1.644531 -0.355469 C 0.730469 -0.0703125 0.238281 0.9375 0.527344 1.847656 C 0.804688 2.726562 1.542969 3.320312 2.316406 3.078125 L 2.574219 2.996094 Z M 2.246094 1.394531 "/></g></g></g><g fill="#ffffff" fill-opacity="1"><g transform="translate(5.462737, 40.575067)"><g><path d="M 1.46875 2.136719 L 0.800781 0.8125 C 0.71875 0.644531 0.78125 0.445312 0.949219 0.363281 L 1.699219 -0.0195312 L 2.203125 0.976562 C 2.289062 1.148438 2.148438 1.402344 2.148438 1.402344 L 2.878906 1.03125 C 2.878906 1.03125 2.597656 0.980469 2.515625 0.820312 L 2.011719 -0.175781 L 2.707031 -0.527344 C 2.878906 -0.613281 3.082031 -0.542969 3.164062 -0.378906 L 3.777344 0.835938 C 3.855469 0.988281 3.535156 1.5625 3.535156 1.5625 L 4.242188 0.980469 L 3.050781 -1.375 C 3.050781 -1.375 3.007812 -1.089844 2.777344 -0.976562 L 0.5625 0.144531 C 0.296875 0.277344 0.0625 0.132812 0.0625 0.132812 L 1.304688 2.59375 L 2.28125 2.328125 C 2.28125 2.328125 1.546875 2.285156 1.46875 2.136719 Z M 1.46875 2.136719 "/></g></g></g><g fill="#ffffff" fill-opacity="1"><g transform="translate(7.373908, 44.252219)"><g><path d="M 4.410156 0.359375 C 4.410156 0.359375 4.449219 0.628906 4.207031 0.804688 L 2.132812 2.324219 L 2.015625 2.164062 L 3.410156 -1.003906 L 2.921875 -1.671875 L 0.566406 0.0546875 C 0.332031 0.226562 0.0820312 0.117188 0.0820312 0.117188 L 0.574219 0.792969 C 0.574219 0.792969 0.558594 0.515625 0.785156 0.351562 L 2.859375 -1.167969 L 3.007812 -0.960938 L 1.613281 2.203125 L 2.066406 2.824219 L 4.421875 1.097656 C 4.664062 0.921875 4.90625 1.039062 4.90625 1.039062 Z M 4.410156 0.359375 "/></g></g></g><g fill="#ffffff" fill-opacity="1"><g transform="translate(10.260733, 48.055505)"><g><path d="M 1.574219 1.101562 C 1 0.546875 1.0625 -0.359375 1.53125 -0.851562 C 2 -1.335938 2.859375 -1.484375 3.484375 -0.886719 C 4.0625 -0.328125 4.167969 0.351562 3.882812 0.644531 L 4.109375 0.941406 C 4.636719 0.394531 4.375 -0.515625 3.738281 -1.128906 C 3.046875 -1.792969 1.929688 -1.789062 1.269531 -1.101562 C 0.609375 -0.414062 0.652344 0.699219 1.34375 1.363281 C 2.320312 2.300781 3.355469 1.679688 3.355469 1.679688 L 3.316406 1.5 C 3.316406 1.5 2.429688 1.921875 1.574219 1.101562 Z M 1.574219 1.101562 "/></g></g></g><g fill="#ffffff" fill-opacity="1"><g transform="translate(13.653814, 51.13517)"><g><path d="M 2.347656 -1.886719 C 2.539062 -2.144531 2.792969 -2.089844 2.792969 -2.089844 L 2.125 -2.59375 C 2.125 -2.59375 2.226562 -2.335938 2.054688 -2.109375 L 0.554688 -0.117188 C 0.382812 0.113281 0.109375 0.0820312 0.109375 0.0820312 L 0.78125 0.585938 C 0.78125 0.585938 0.675781 0.335938 0.847656 0.105469 Z M 2.347656 -1.886719 "/></g></g></g><g fill="#ffffff" fill-opacity="1"><g transform="translate(15.18792, 52.335705)"><g><path d="M 3.496094 2.003906 C 3.496094 2.003906 3.300781 1.746094 3.332031 1.335938 L 3.710938 -1.328125 L 3.761719 -1.699219 L 3.019531 -2.125 L 2.726562 -1.890625 L 0.617188 -0.214844 C 0.28125 0.0195312 -0.0351562 -0.0195312 -0.0351562 -0.0195312 L 0.203125 0.117188 L 0.199219 0.121094 L 0.546875 0.316406 L 0.546875 0.3125 L 0.976562 0.558594 C 0.976562 0.558594 0.785156 0.132812 0.921875 0.015625 L 1.550781 -0.484375 L 3.097656 0.402344 L 2.980469 1.1875 C 2.957031 1.375 2.484375 1.421875 2.484375 1.421875 L 2.914062 1.667969 L 2.910156 1.675781 L 3.257812 1.871094 L 3.257812 1.867188 Z M 1.84375 -0.71875 L 3.070312 -1.691406 L 3.371094 -1.519531 L 3.148438 0.0273438 Z M 1.84375 -0.71875 "/></g></g></g><g fill="#ffffff" fill-opacity="1"><g transform="translate(19.443797, 54.615164)"><g/></g></g><g fill="#ffffff" fill-opacity="1"><g transform="translate(21.534495, 55.49256)"><g><path d="M 2.566406 -2.769531 L 1.019531 -3.1875 C 1.019531 -3.1875 1.207031 -2.988281 1.132812 -2.71875 L 0.480469 -0.316406 C 0.40625 -0.0273438 0.140625 0.0429688 0.140625 0.0429688 L 1.746094 0.476562 C 2.671875 0.730469 3.585938 0.238281 3.867188 -0.800781 C 4.097656 -1.660156 3.429688 -2.535156 2.566406 -2.769531 Z M 1.835938 0.136719 L 1.144531 -0.0507812 C 0.964844 -0.101562 0.855469 -0.289062 0.90625 -0.46875 L 1.414062 -2.351562 C 1.46875 -2.542969 1.660156 -2.652344 1.851562 -2.601562 L 2.527344 -2.417969 C 3.273438 -2.214844 3.671875 -1.476562 3.484375 -0.789062 C 3.304688 -0.125 2.582031 0.335938 1.835938 0.136719 Z M 1.835938 0.136719 "/></g></g></g><g fill="#ffffff" fill-opacity="1"><g transform="translate(25.958616, 56.600895)"><g><path d="M 2.59375 -0.078125 L 1.117188 -0.234375 C 0.929688 -0.253906 0.800781 -0.417969 0.820312 -0.601562 L 0.90625 -1.441406 L 2.015625 -1.324219 C 2.207031 -1.304688 2.34375 -1.046875 2.34375 -1.046875 L 2.425781 -1.863281 C 2.425781 -1.863281 2.230469 -1.652344 2.050781 -1.671875 L 0.941406 -1.785156 L 1.023438 -2.5625 C 1.042969 -2.753906 1.210938 -2.882812 1.398438 -2.863281 L 2.75 -2.722656 C 2.921875 -2.707031 3.230469 -2.125 3.230469 -2.125 L 3.125 -3.035156 L 0.496094 -3.3125 C 0.496094 -3.3125 0.710938 -3.121094 0.683594 -2.863281 L 0.425781 -0.394531 C 0.394531 -0.0976562 0.148438 0.0195312 0.148438 0.0195312 L 2.886719 0.308594 L 3.191406 -0.65625 C 3.191406 -0.65625 2.757812 -0.0625 2.59375 -0.078125 Z M 2.59375 -0.078125 "/></g></g></g><g fill="#ffffff" fill-opacity="1"><g transform="translate(30.011579, 56.925136)"><g/></g></g><g fill="#ffffff" fill-opacity="1"><g transform="translate(32.334156, 56.976629)"><g><path d="M 4.195312 -0.703125 L 5.027344 -0.84375 C 5.027344 -0.84375 4.769531 -0.917969 4.71875 -1.226562 L 4.230469 -4.105469 L 3.386719 -3.964844 L 2.707031 -0.8125 L 2.339844 -0.75 L 0.660156 -3.503906 L -0.183594 -3.359375 L 0.300781 -0.484375 C 0.34375 -0.222656 0.140625 -0.0195312 0.140625 -0.0195312 L 0.96875 -0.160156 C 0.96875 -0.160156 0.710938 -0.265625 0.664062 -0.542969 L 0.238281 -3.078125 L 0.472656 -3.117188 L 2.152344 -0.359375 L 3.011719 -0.507812 L 3.691406 -3.660156 L 3.925781 -3.699219 L 4.355469 -1.167969 C 4.40625 -0.871094 4.195312 -0.703125 4.195312 -0.703125 Z M 4.195312 -0.703125 "/></g></g></g><g fill="#ffffff" fill-opacity="1"><g transform="translate(38.412481, 55.78691)"><g><path d="M 3.753906 -1.464844 C 3.753906 -1.464844 3.429688 -1.472656 3.128906 -1.757812 L 1.292969 -3.722656 L 1.039062 -3.996094 L 0.242188 -3.683594 L 0.238281 -3.308594 L 0.222656 -0.617188 C 0.191406 -0.207031 -0.0351562 0.015625 -0.0351562 0.015625 L 0.21875 -0.0859375 L 0.21875 -0.0820312 L 0.589844 -0.226562 L 0.589844 -0.230469 L 1.046875 -0.410156 C 1.046875 -0.410156 0.597656 -0.527344 0.589844 -0.707031 L 0.597656 -1.511719 L 2.253906 -2.160156 L 2.796875 -1.574219 C 2.925781 -1.441406 2.664062 -1.039062 2.664062 -1.039062 L 3.128906 -1.222656 L 3.128906 -1.21875 L 3.5 -1.363281 L 3.5 -1.367188 Z M 0.597656 -1.886719 L 0.609375 -3.453125 L 0.929688 -3.578125 L 1.996094 -2.433594 Z M 0.597656 -1.886719 "/></g></g></g><g fill="#ffffff" fill-opacity="1"><g transform="translate(42.943858, 53.918675)"><g><path d="M 2.152344 -2.066406 L 1.285156 -2.398438 C 1.722656 -2.675781 1.878906 -3.230469 1.566406 -3.742188 C 1.289062 -4.199219 0.691406 -4.339844 0.234375 -4.0625 L 0.230469 -4.066406 L -1.625 -2.929688 C -1.625 -2.929688 -1.347656 -2.921875 -1.179688 -2.648438 L 0.0976562 -0.558594 C 0.246094 -0.3125 0.117188 -0.0742188 0.117188 -0.0742188 L 0.832031 -0.507812 C 0.832031 -0.507812 0.5625 -0.503906 0.410156 -0.75 L -0.0820312 -1.558594 L 0.910156 -2.164062 L 1.945312 -1.769531 C 2.320312 -1.628906 2.804688 -1.710938 3.144531 -1.917969 L 3.050781 -2.074219 C 2.792969 -1.917969 2.433594 -1.957031 2.152344 -2.066406 Z M -0.753906 -2.65625 C -0.847656 -2.8125 -0.796875 -3.023438 -0.636719 -3.121094 L 0.34375 -3.71875 C 0.714844 -3.945312 1.164062 -3.828125 1.324219 -3.394531 C 1.425781 -3.117188 1.246094 -2.777344 0.964844 -2.605469 L -0.265625 -1.855469 Z M -0.753906 -2.65625 "/></g></g></g><g fill="#ffffff" fill-opacity="1"><g transform="translate(46.844227, 51.442149)"><g><path d="M 1.652344 -2.285156 L 0.105469 -2.59375 L 0.199219 -3.84375 C 0.207031 -4.375 0.460938 -4.835938 0.460938 -4.835938 L -0.597656 -3.914062 C -0.597656 -3.914062 -0.148438 -4.03125 -0.152344 -3.765625 L -0.230469 -2.695312 L -0.878906 -2.132812 L -1.355469 -2.6875 C -1.554688 -2.914062 -1.460938 -3.164062 -1.460938 -3.164062 L -2.09375 -2.617188 C -2.09375 -2.617188 -1.855469 -2.699219 -1.636719 -2.445312 L 0 -0.5625 C 0.199219 -0.332031 0.101562 -0.0859375 0.101562 -0.0859375 L 0.734375 -0.636719 C 0.734375 -0.636719 0.488281 -0.5625 0.277344 -0.804688 L -0.644531 -1.867188 L -0.15625 -2.289062 L 1.5 -1.960938 C 1.890625 -1.882812 2.355469 -2.046875 2.65625 -2.304688 L 2.535156 -2.441406 C 2.308594 -2.246094 1.953125 -2.226562 1.652344 -2.285156 Z M 1.652344 -2.285156 "/></g></g></g><g fill="#ffffff" fill-opacity="1"><g transform="translate(50.138096, 48.475606)"><g><path d="M 1.382812 -2.191406 L 0.429688 -1.054688 C 0.3125 -0.914062 0.101562 -0.894531 -0.0429688 -1.015625 L -0.6875 -1.554688 L 0.03125 -2.410156 C 0.152344 -2.558594 0.441406 -2.527344 0.441406 -2.527344 L -0.1875 -3.054688 C -0.1875 -3.054688 -0.121094 -2.773438 -0.238281 -2.636719 L -0.953125 -1.78125 L -1.550781 -2.28125 C -1.699219 -2.40625 -1.714844 -2.617188 -1.59375 -2.761719 L -0.71875 -3.800781 C -0.609375 -3.933594 0.046875 -3.867188 0.046875 -3.867188 L -0.769531 -4.285156 L -2.464844 -2.261719 C -2.464844 -2.261719 -2.1875 -2.335938 -1.988281 -2.167969 L -0.0859375 -0.574219 C 0.140625 -0.382812 0.0976562 -0.109375 0.0976562 -0.109375 L 1.871094 -2.222656 L 1.242188 -3.011719 C 1.242188 -3.011719 1.492188 -2.320312 1.382812 -2.191406 Z M 1.382812 -2.191406 "/></g></g></g><g fill="#ffffff" fill-opacity="1"><g transform="translate(52.753869, 45.272113)"><g><path d="M -1.105469 -4.640625 L -1.121094 -4.652344 L -2.769531 -1.894531 L -2.753906 -1.886719 L -2.074219 -1.304688 C -2.074219 -1.304688 -2.355469 -1.894531 -2.269531 -2.042969 L -1.855469 -2.730469 C -1.71875 -2.816406 -1.617188 -2.863281 -1.472656 -2.777344 L 0.46875 -1.613281 C 0.726562 -1.460938 0.714844 -1.195312 0.714844 -1.195312 L 1.148438 -1.917969 C 1.148438 -1.917969 0.90625 -1.785156 0.660156 -1.929688 L -1.285156 -3.09375 C -1.429688 -3.179688 -1.433594 -3.289062 -1.425781 -3.449219 L -1.015625 -4.140625 C -0.925781 -4.289062 -0.269531 -4.320312 -0.269531 -4.320312 Z M -1.105469 -4.640625 "/></g></g></g><g fill="#ffffff" fill-opacity="1"><g transform="translate(54.929055, 41.395819)"><g><path d="M -2.359375 -1.871094 C -2.652344 -2 -2.65625 -2.261719 -2.65625 -2.261719 L -3 -1.496094 C -3 -1.496094 -2.773438 -1.652344 -2.511719 -1.535156 L -0.234375 -0.515625 C 0.0273438 -0.398438 0.0585938 -0.125 0.0585938 -0.125 L 0.398438 -0.890625 C 0.398438 -0.890625 0.175781 -0.734375 -0.0859375 -0.851562 Z M -2.359375 -1.871094 "/></g></g></g><g fill="#ffffff" fill-opacity="1"><g transform="translate(55.754699, 39.635872)"><g><path d="M -2.34375 -3.75 C -2.34375 -3.75 -2.152344 -3.945312 -1.867188 -3.855469 L 0.589844 -3.097656 L 0.53125 -2.910156 L -2.839844 -2.136719 L -3.085938 -1.347656 L -0.296875 -0.488281 C -0.015625 -0.402344 0.046875 -0.136719 0.046875 -0.136719 L 0.292969 -0.9375 C 0.292969 -0.9375 0.0820312 -0.753906 -0.1875 -0.839844 L -2.640625 -1.597656 L -2.566406 -1.839844 L 0.804688 -2.609375 L 1.03125 -3.34375 L -1.757812 -4.203125 C -2.046875 -4.292969 -2.09375 -4.554688 -2.09375 -4.554688 Z M -2.34375 -3.75 "/></g></g></g><g fill="#ffffff" fill-opacity="1"><g transform="translate(57.084665, 35.048496)"><g><path d="M -1.460938 -2.203125 L -1.242188 -2.152344 L -0.917969 -3.542969 L -0.894531 -3.539062 C -0.308594 -3.46875 0.046875 -2.78125 -0.0585938 -1.929688 C -0.15625 -1.136719 -0.855469 -0.628906 -1.597656 -0.71875 C -2.308594 -0.808594 -2.886719 -1.472656 -2.789062 -2.265625 C -2.679688 -3.140625 -2.257812 -3.515625 -1.78125 -3.457031 L -1.683594 -3.855469 C -2.4375 -3.949219 -3.015625 -3.269531 -3.132812 -2.324219 C -3.25 -1.378906 -2.582031 -0.476562 -1.644531 -0.359375 C -0.691406 -0.242188 0.171875 -0.953125 0.289062 -1.898438 C 0.402344 -2.8125 -0.0195312 -3.664062 -0.828125 -3.761719 L -1.09375 -3.796875 Z M -1.460938 -2.203125 "/></g></g></g></svg>